G04 #@! TF.GenerationSoftware,KiCad,Pcbnew,9.0.1*
G04 #@! TF.CreationDate,2025-08-14T12:18:44-07:00*
G04 #@! TF.ProjectId,EL_PSU,454c5f50-5355-42e6-9b69-6361645f7063,rev?*
G04 #@! TF.SameCoordinates,Original*
G04 #@! TF.FileFunction,Legend,Bot*
G04 #@! TF.FilePolarity,Positive*
%FSLAX46Y46*%
G04 Gerber Fmt 4.6, Leading zero omitted, Abs format (unit mm)*
G04 Created by KiCad (PCBNEW 9.0.1) date 2025-08-14 12:18:44*
%MOMM*%
%LPD*%
G01*
G04 APERTURE LIST*
%ADD10C,0.150000*%
G04 APERTURE END LIST*
D10*
X130619047Y-86454819D02*
X130619047Y-85454819D01*
X130619047Y-85931009D02*
X130047619Y-85931009D01*
X130047619Y-86454819D02*
X130047619Y-85454819D01*
X129714285Y-85454819D02*
X129380952Y-86454819D01*
X129380952Y-86454819D02*
X129047619Y-85454819D01*
X128952381Y-86550057D02*
X128190476Y-86550057D01*
X127952380Y-86454819D02*
X127952380Y-85454819D01*
X127952380Y-85454819D02*
X127571428Y-85454819D01*
X127571428Y-85454819D02*
X127476190Y-85502438D01*
X127476190Y-85502438D02*
X127428571Y-85550057D01*
X127428571Y-85550057D02*
X127380952Y-85645295D01*
X127380952Y-85645295D02*
X127380952Y-85788152D01*
X127380952Y-85788152D02*
X127428571Y-85883390D01*
X127428571Y-85883390D02*
X127476190Y-85931009D01*
X127476190Y-85931009D02*
X127571428Y-85978628D01*
X127571428Y-85978628D02*
X127952380Y-85978628D01*
X126999999Y-86407200D02*
X126857142Y-86454819D01*
X126857142Y-86454819D02*
X126619047Y-86454819D01*
X126619047Y-86454819D02*
X126523809Y-86407200D01*
X126523809Y-86407200D02*
X126476190Y-86359580D01*
X126476190Y-86359580D02*
X126428571Y-86264342D01*
X126428571Y-86264342D02*
X126428571Y-86169104D01*
X126428571Y-86169104D02*
X126476190Y-86073866D01*
X126476190Y-86073866D02*
X126523809Y-86026247D01*
X126523809Y-86026247D02*
X126619047Y-85978628D01*
X126619047Y-85978628D02*
X126809523Y-85931009D01*
X126809523Y-85931009D02*
X126904761Y-85883390D01*
X126904761Y-85883390D02*
X126952380Y-85835771D01*
X126952380Y-85835771D02*
X126999999Y-85740533D01*
X126999999Y-85740533D02*
X126999999Y-85645295D01*
X126999999Y-85645295D02*
X126952380Y-85550057D01*
X126952380Y-85550057D02*
X126904761Y-85502438D01*
X126904761Y-85502438D02*
X126809523Y-85454819D01*
X126809523Y-85454819D02*
X126571428Y-85454819D01*
X126571428Y-85454819D02*
X126428571Y-85502438D01*
X125999999Y-85454819D02*
X125999999Y-86264342D01*
X125999999Y-86264342D02*
X125952380Y-86359580D01*
X125952380Y-86359580D02*
X125904761Y-86407200D01*
X125904761Y-86407200D02*
X125809523Y-86454819D01*
X125809523Y-86454819D02*
X125619047Y-86454819D01*
X125619047Y-86454819D02*
X125523809Y-86407200D01*
X125523809Y-86407200D02*
X125476190Y-86359580D01*
X125476190Y-86359580D02*
X125428571Y-86264342D01*
X125428571Y-86264342D02*
X125428571Y-85454819D01*
X124952380Y-86073866D02*
X124190476Y-86073866D01*
X123857142Y-85454819D02*
X123523809Y-86454819D01*
X123523809Y-86454819D02*
X123190476Y-85454819D01*
X122333333Y-86454819D02*
X122904761Y-86454819D01*
X122619047Y-86454819D02*
X122619047Y-85454819D01*
X122619047Y-85454819D02*
X122714285Y-85597676D01*
X122714285Y-85597676D02*
X122809523Y-85692914D01*
X122809523Y-85692914D02*
X122904761Y-85740533D01*
X131000000Y-83147819D02*
X131000000Y-83862104D01*
X131000000Y-83862104D02*
X131047619Y-84004961D01*
X131047619Y-84004961D02*
X131142857Y-84100200D01*
X131142857Y-84100200D02*
X131285714Y-84147819D01*
X131285714Y-84147819D02*
X131380952Y-84147819D01*
X130523809Y-84147819D02*
X130523809Y-83147819D01*
X130523809Y-83147819D02*
X130285714Y-83147819D01*
X130285714Y-83147819D02*
X130142857Y-83195438D01*
X130142857Y-83195438D02*
X130047619Y-83290676D01*
X130047619Y-83290676D02*
X130000000Y-83385914D01*
X130000000Y-83385914D02*
X129952381Y-83576390D01*
X129952381Y-83576390D02*
X129952381Y-83719247D01*
X129952381Y-83719247D02*
X130000000Y-83909723D01*
X130000000Y-83909723D02*
X130047619Y-84004961D01*
X130047619Y-84004961D02*
X130142857Y-84100200D01*
X130142857Y-84100200D02*
X130285714Y-84147819D01*
X130285714Y-84147819D02*
X130523809Y-84147819D01*
X129523809Y-84147819D02*
X129523809Y-83147819D01*
X129523809Y-83147819D02*
X128952381Y-84147819D01*
X128952381Y-84147819D02*
X128952381Y-83147819D01*
X127190476Y-84147819D02*
X127761904Y-84147819D01*
X127476190Y-84147819D02*
X127476190Y-83147819D01*
X127476190Y-83147819D02*
X127571428Y-83290676D01*
X127571428Y-83290676D02*
X127666666Y-83385914D01*
X127666666Y-83385914D02*
X127761904Y-83433533D01*
X126857142Y-83147819D02*
X126238095Y-83147819D01*
X126238095Y-83147819D02*
X126571428Y-83528771D01*
X126571428Y-83528771D02*
X126428571Y-83528771D01*
X126428571Y-83528771D02*
X126333333Y-83576390D01*
X126333333Y-83576390D02*
X126285714Y-83624009D01*
X126285714Y-83624009D02*
X126238095Y-83719247D01*
X126238095Y-83719247D02*
X126238095Y-83957342D01*
X126238095Y-83957342D02*
X126285714Y-84052580D01*
X126285714Y-84052580D02*
X126333333Y-84100200D01*
X126333333Y-84100200D02*
X126428571Y-84147819D01*
X126428571Y-84147819D02*
X126714285Y-84147819D01*
X126714285Y-84147819D02*
X126809523Y-84100200D01*
X126809523Y-84100200D02*
X126857142Y-84052580D01*
X125857142Y-83862104D02*
X125380952Y-83862104D01*
X125952380Y-84147819D02*
X125619047Y-83147819D01*
X125619047Y-83147819D02*
X125285714Y-84147819D01*
X124523809Y-83481152D02*
X124523809Y-84147819D01*
X124952380Y-83481152D02*
X124952380Y-84004961D01*
X124952380Y-84004961D02*
X124904761Y-84100200D01*
X124904761Y-84100200D02*
X124809523Y-84147819D01*
X124809523Y-84147819D02*
X124666666Y-84147819D01*
X124666666Y-84147819D02*
X124571428Y-84100200D01*
X124571428Y-84100200D02*
X124523809Y-84052580D01*
X123619047Y-83481152D02*
X123619047Y-84290676D01*
X123619047Y-84290676D02*
X123666666Y-84385914D01*
X123666666Y-84385914D02*
X123714285Y-84433533D01*
X123714285Y-84433533D02*
X123809523Y-84481152D01*
X123809523Y-84481152D02*
X123952380Y-84481152D01*
X123952380Y-84481152D02*
X124047618Y-84433533D01*
X123619047Y-84100200D02*
X123714285Y-84147819D01*
X123714285Y-84147819D02*
X123904761Y-84147819D01*
X123904761Y-84147819D02*
X123999999Y-84100200D01*
X123999999Y-84100200D02*
X124047618Y-84052580D01*
X124047618Y-84052580D02*
X124095237Y-83957342D01*
X124095237Y-83957342D02*
X124095237Y-83671628D01*
X124095237Y-83671628D02*
X124047618Y-83576390D01*
X124047618Y-83576390D02*
X123999999Y-83528771D01*
X123999999Y-83528771D02*
X123904761Y-83481152D01*
X123904761Y-83481152D02*
X123714285Y-83481152D01*
X123714285Y-83481152D02*
X123619047Y-83528771D01*
X123190475Y-83243057D02*
X123142856Y-83195438D01*
X123142856Y-83195438D02*
X123047618Y-83147819D01*
X123047618Y-83147819D02*
X122809523Y-83147819D01*
X122809523Y-83147819D02*
X122714285Y-83195438D01*
X122714285Y-83195438D02*
X122666666Y-83243057D01*
X122666666Y-83243057D02*
X122619047Y-83338295D01*
X122619047Y-83338295D02*
X122619047Y-83433533D01*
X122619047Y-83433533D02*
X122666666Y-83576390D01*
X122666666Y-83576390D02*
X123238094Y-84147819D01*
X123238094Y-84147819D02*
X122619047Y-84147819D01*
X121714285Y-83147819D02*
X122190475Y-83147819D01*
X122190475Y-83147819D02*
X122238094Y-83624009D01*
X122238094Y-83624009D02*
X122190475Y-83576390D01*
X122190475Y-83576390D02*
X122095237Y-83528771D01*
X122095237Y-83528771D02*
X121857142Y-83528771D01*
X121857142Y-83528771D02*
X121761904Y-83576390D01*
X121761904Y-83576390D02*
X121714285Y-83624009D01*
X121714285Y-83624009D02*
X121666666Y-83719247D01*
X121666666Y-83719247D02*
X121666666Y-83957342D01*
X121666666Y-83957342D02*
X121714285Y-84052580D01*
X121714285Y-84052580D02*
X121761904Y-84100200D01*
X121761904Y-84100200D02*
X121857142Y-84147819D01*
X121857142Y-84147819D02*
X122095237Y-84147819D01*
X122095237Y-84147819D02*
X122190475Y-84100200D01*
X122190475Y-84100200D02*
X122238094Y-84052580D01*
X128134856Y-104991819D02*
X127801523Y-105991819D01*
X127801523Y-105991819D02*
X127468190Y-104991819D01*
X126801523Y-105468009D02*
X126658666Y-105515628D01*
X126658666Y-105515628D02*
X126611047Y-105563247D01*
X126611047Y-105563247D02*
X126563428Y-105658485D01*
X126563428Y-105658485D02*
X126563428Y-105801342D01*
X126563428Y-105801342D02*
X126611047Y-105896580D01*
X126611047Y-105896580D02*
X126658666Y-105944200D01*
X126658666Y-105944200D02*
X126753904Y-105991819D01*
X126753904Y-105991819D02*
X127134856Y-105991819D01*
X127134856Y-105991819D02*
X127134856Y-104991819D01*
X127134856Y-104991819D02*
X126801523Y-104991819D01*
X126801523Y-104991819D02*
X126706285Y-105039438D01*
X126706285Y-105039438D02*
X126658666Y-105087057D01*
X126658666Y-105087057D02*
X126611047Y-105182295D01*
X126611047Y-105182295D02*
X126611047Y-105277533D01*
X126611047Y-105277533D02*
X126658666Y-105372771D01*
X126658666Y-105372771D02*
X126706285Y-105420390D01*
X126706285Y-105420390D02*
X126801523Y-105468009D01*
X126801523Y-105468009D02*
X127134856Y-105468009D01*
X126182475Y-105706104D02*
X125706285Y-105706104D01*
X126277713Y-105991819D02*
X125944380Y-104991819D01*
X125944380Y-104991819D02*
X125611047Y-105991819D01*
X125420570Y-104991819D02*
X124849142Y-104991819D01*
X125134856Y-105991819D02*
X125134856Y-104991819D01*
X123824904Y-98689438D02*
X123920142Y-98641819D01*
X123920142Y-98641819D02*
X124062999Y-98641819D01*
X124062999Y-98641819D02*
X124205856Y-98689438D01*
X124205856Y-98689438D02*
X124301094Y-98784676D01*
X124301094Y-98784676D02*
X124348713Y-98879914D01*
X124348713Y-98879914D02*
X124396332Y-99070390D01*
X124396332Y-99070390D02*
X124396332Y-99213247D01*
X124396332Y-99213247D02*
X124348713Y-99403723D01*
X124348713Y-99403723D02*
X124301094Y-99498961D01*
X124301094Y-99498961D02*
X124205856Y-99594200D01*
X124205856Y-99594200D02*
X124062999Y-99641819D01*
X124062999Y-99641819D02*
X123967761Y-99641819D01*
X123967761Y-99641819D02*
X123824904Y-99594200D01*
X123824904Y-99594200D02*
X123777285Y-99546580D01*
X123777285Y-99546580D02*
X123777285Y-99213247D01*
X123777285Y-99213247D02*
X123967761Y-99213247D01*
X123348713Y-99641819D02*
X123348713Y-98641819D01*
X123348713Y-98641819D02*
X122777285Y-99641819D01*
X122777285Y-99641819D02*
X122777285Y-98641819D01*
X122301094Y-99641819D02*
X122301094Y-98641819D01*
X122301094Y-98641819D02*
X122062999Y-98641819D01*
X122062999Y-98641819D02*
X121920142Y-98689438D01*
X121920142Y-98689438D02*
X121824904Y-98784676D01*
X121824904Y-98784676D02*
X121777285Y-98879914D01*
X121777285Y-98879914D02*
X121729666Y-99070390D01*
X121729666Y-99070390D02*
X121729666Y-99213247D01*
X121729666Y-99213247D02*
X121777285Y-99403723D01*
X121777285Y-99403723D02*
X121824904Y-99498961D01*
X121824904Y-99498961D02*
X121920142Y-99594200D01*
X121920142Y-99594200D02*
X122062999Y-99641819D01*
X122062999Y-99641819D02*
X122301094Y-99641819D01*
M02*
