G04 #@! TF.GenerationSoftware,KiCad,Pcbnew,9.0.1*
G04 #@! TF.CreationDate,2025-08-14T12:18:45-07:00*
G04 #@! TF.ProjectId,EL_PSU,454c5f50-5355-42e6-9b69-6361645f7063,rev?*
G04 #@! TF.SameCoordinates,Original*
G04 #@! TF.FileFunction,Profile,NP*
%FSLAX46Y46*%
G04 Gerber Fmt 4.6, Leading zero omitted, Abs format (unit mm)*
G04 Created by KiCad (PCBNEW 9.0.1) date 2025-08-14 12:18:45*
%MOMM*%
%LPD*%
G01*
G04 APERTURE LIST*
G04 #@! TA.AperFunction,Profile*
%ADD10C,0.200000*%
G04 #@! TD*
G04 #@! TA.AperFunction,Profile*
%ADD11C,0.100000*%
G04 #@! TD*
G04 APERTURE END LIST*
D10*
X120473000Y-106489000D02*
X187000000Y-106489000D01*
X187000000Y-106489000D02*
X187000000Y-74000000D01*
X120523000Y-82169000D02*
X149225000Y-82169000D01*
X120523000Y-82169000D02*
X120473000Y-106489000D01*
X187000000Y-74000000D02*
X151511000Y-74000000D01*
X149225000Y-82169000D02*
X151511000Y-74000000D01*
D11*
X140095000Y-104385000D02*
X140095000Y-103835000D01*
X140445000Y-103485000D02*
X140645000Y-103485000D01*
X140645000Y-104785000D02*
X140445000Y-104785000D01*
X140995000Y-103835000D02*
X140995000Y-104385000D01*
X147295000Y-104435000D02*
X147295000Y-103835000D01*
X148195000Y-103835000D02*
X148195000Y-104435000D01*
X140095000Y-103835000D02*
G75*
G02*
X140445000Y-103485000I350001J-1D01*
G01*
X140445000Y-104785000D02*
G75*
G02*
X140095000Y-104385000I25000J375000D01*
G01*
X140645000Y-103485000D02*
G75*
G02*
X140995000Y-103835000I-1J-350001D01*
G01*
X140995000Y-104385000D02*
G75*
G02*
X140645000Y-104785000I-375000J-25000D01*
G01*
X147295000Y-103835000D02*
G75*
G02*
X147745000Y-103485000I400000J-50000D01*
G01*
X147745000Y-103485000D02*
G75*
G02*
X148195000Y-103835000I50000J-400000D01*
G01*
X147745000Y-104785000D02*
G75*
G02*
X147295000Y-104435000I-50000J400000D01*
G01*
X148195000Y-104435000D02*
G75*
G02*
X147745000Y-104785000I-400000J50000D01*
G01*
M02*
