G04 #@! TF.GenerationSoftware,KiCad,Pcbnew,9.0.1*
G04 #@! TF.CreationDate,2025-08-14T12:18:44-07:00*
G04 #@! TF.ProjectId,EL_PSU,454c5f50-5355-42e6-9b69-6361645f7063,rev?*
G04 #@! TF.SameCoordinates,Original*
G04 #@! TF.FileFunction,Legend,Top*
G04 #@! TF.FilePolarity,Positive*
%FSLAX46Y46*%
G04 Gerber Fmt 4.6, Leading zero omitted, Abs format (unit mm)*
G04 Created by KiCad (PCBNEW 9.0.1) date 2025-08-14 12:18:44*
%MOMM*%
%LPD*%
G01*
G04 APERTURE LIST*
%ADD10C,0.200000*%
%ADD11C,0.400000*%
%ADD12C,0.150000*%
%ADD13C,0.138988*%
%ADD14C,0.304800*%
%ADD15C,0.127000*%
%ADD16C,0.203200*%
%ADD17C,0.000000*%
%ADD18C,0.120000*%
G04 APERTURE END LIST*
D10*
X175416981Y-86487000D02*
G75*
G02*
X174849019Y-86487000I-283981J0D01*
G01*
X174849019Y-86487000D02*
G75*
G02*
X175416981Y-86487000I283981J0D01*
G01*
X130400000Y-83600000D02*
X130400000Y-87200000D01*
D11*
X131572000Y-83693000D02*
X129794000Y-85471000D01*
D10*
X121400000Y-83600000D02*
X130400000Y-83600000D01*
X131800000Y-94400000D02*
X121400000Y-94400000D01*
D11*
X129794000Y-86487000D02*
X129413000Y-86487000D01*
X133731000Y-84328000D02*
X133731000Y-83693000D01*
D10*
X130400000Y-87200000D02*
X131800000Y-87200000D01*
D11*
X129794000Y-85471000D02*
X129794000Y-86487000D01*
X133731000Y-83693000D02*
X131572000Y-83693000D01*
D10*
X131800000Y-87200000D02*
X131800000Y-94400000D01*
D11*
X157513000Y-85329000D02*
X156591000Y-84328000D01*
D10*
X121400000Y-94400000D02*
X121400000Y-83600000D01*
D11*
X141732000Y-85090000D02*
X134747000Y-85090000D01*
X146685000Y-84709000D02*
X142367000Y-84709000D01*
X142367000Y-84709000D02*
X141732000Y-85090000D01*
X174625000Y-85344000D02*
X157607000Y-85344000D01*
X156591000Y-84328000D02*
X153670000Y-84328000D01*
D12*
X182118095Y-103563057D02*
X182165714Y-103515438D01*
X182165714Y-103515438D02*
X182260952Y-103467819D01*
X182260952Y-103467819D02*
X182499047Y-103467819D01*
X182499047Y-103467819D02*
X182594285Y-103515438D01*
X182594285Y-103515438D02*
X182641904Y-103563057D01*
X182641904Y-103563057D02*
X182689523Y-103658295D01*
X182689523Y-103658295D02*
X182689523Y-103753533D01*
X182689523Y-103753533D02*
X182641904Y-103896390D01*
X182641904Y-103896390D02*
X182070476Y-104467819D01*
X182070476Y-104467819D02*
X182689523Y-104467819D01*
X183641904Y-104467819D02*
X183070476Y-104467819D01*
X183356190Y-104467819D02*
X183356190Y-103467819D01*
X183356190Y-103467819D02*
X183260952Y-103610676D01*
X183260952Y-103610676D02*
X183165714Y-103705914D01*
X183165714Y-103705914D02*
X183070476Y-103753533D01*
X182721285Y-79544152D02*
X182721285Y-80210819D01*
X182483190Y-79163200D02*
X182245095Y-79877485D01*
X182245095Y-79877485D02*
X182864142Y-79877485D01*
X183768904Y-80210819D02*
X183197476Y-80210819D01*
X183483190Y-80210819D02*
X183483190Y-79210819D01*
X183483190Y-79210819D02*
X183387952Y-79353676D01*
X183387952Y-79353676D02*
X183292714Y-79448914D01*
X183292714Y-79448914D02*
X183197476Y-79496533D01*
X151860285Y-77051819D02*
X151669809Y-77051819D01*
X151669809Y-77051819D02*
X151574571Y-77099438D01*
X151574571Y-77099438D02*
X151526952Y-77147057D01*
X151526952Y-77147057D02*
X151431714Y-77289914D01*
X151431714Y-77289914D02*
X151384095Y-77480390D01*
X151384095Y-77480390D02*
X151384095Y-77861342D01*
X151384095Y-77861342D02*
X151431714Y-77956580D01*
X151431714Y-77956580D02*
X151479333Y-78004200D01*
X151479333Y-78004200D02*
X151574571Y-78051819D01*
X151574571Y-78051819D02*
X151765047Y-78051819D01*
X151765047Y-78051819D02*
X151860285Y-78004200D01*
X151860285Y-78004200D02*
X151907904Y-77956580D01*
X151907904Y-77956580D02*
X151955523Y-77861342D01*
X151955523Y-77861342D02*
X151955523Y-77623247D01*
X151955523Y-77623247D02*
X151907904Y-77528009D01*
X151907904Y-77528009D02*
X151860285Y-77480390D01*
X151860285Y-77480390D02*
X151765047Y-77432771D01*
X151765047Y-77432771D02*
X151574571Y-77432771D01*
X151574571Y-77432771D02*
X151479333Y-77480390D01*
X151479333Y-77480390D02*
X151431714Y-77528009D01*
X151431714Y-77528009D02*
X151384095Y-77623247D01*
X152812666Y-77385152D02*
X152812666Y-78051819D01*
X152574571Y-77004200D02*
X152336476Y-77718485D01*
X152336476Y-77718485D02*
X152955523Y-77718485D01*
X146361571Y-92160164D02*
X146361571Y-91410164D01*
X146361571Y-91410164D02*
X146540142Y-91410164D01*
X146540142Y-91410164D02*
X146647285Y-91445878D01*
X146647285Y-91445878D02*
X146718714Y-91517307D01*
X146718714Y-91517307D02*
X146754428Y-91588735D01*
X146754428Y-91588735D02*
X146790142Y-91731592D01*
X146790142Y-91731592D02*
X146790142Y-91838735D01*
X146790142Y-91838735D02*
X146754428Y-91981592D01*
X146754428Y-91981592D02*
X146718714Y-92053021D01*
X146718714Y-92053021D02*
X146647285Y-92124450D01*
X146647285Y-92124450D02*
X146540142Y-92160164D01*
X146540142Y-92160164D02*
X146361571Y-92160164D01*
X151580428Y-100716878D02*
X151509000Y-100681164D01*
X151509000Y-100681164D02*
X151401857Y-100681164D01*
X151401857Y-100681164D02*
X151294714Y-100716878D01*
X151294714Y-100716878D02*
X151223285Y-100788307D01*
X151223285Y-100788307D02*
X151187571Y-100859735D01*
X151187571Y-100859735D02*
X151151857Y-101002592D01*
X151151857Y-101002592D02*
X151151857Y-101109735D01*
X151151857Y-101109735D02*
X151187571Y-101252592D01*
X151187571Y-101252592D02*
X151223285Y-101324021D01*
X151223285Y-101324021D02*
X151294714Y-101395450D01*
X151294714Y-101395450D02*
X151401857Y-101431164D01*
X151401857Y-101431164D02*
X151473285Y-101431164D01*
X151473285Y-101431164D02*
X151580428Y-101395450D01*
X151580428Y-101395450D02*
X151616142Y-101359735D01*
X151616142Y-101359735D02*
X151616142Y-101109735D01*
X151616142Y-101109735D02*
X151473285Y-101109735D01*
X144992164Y-92441999D02*
X144242164Y-92441999D01*
X144242164Y-92441999D02*
X144242164Y-92156285D01*
X144242164Y-92156285D02*
X144277878Y-92084856D01*
X144277878Y-92084856D02*
X144313592Y-92049142D01*
X144313592Y-92049142D02*
X144385021Y-92013428D01*
X144385021Y-92013428D02*
X144492164Y-92013428D01*
X144492164Y-92013428D02*
X144563592Y-92049142D01*
X144563592Y-92049142D02*
X144599307Y-92084856D01*
X144599307Y-92084856D02*
X144635021Y-92156285D01*
X144635021Y-92156285D02*
X144635021Y-92441999D01*
X144777878Y-91727713D02*
X144777878Y-91370571D01*
X144992164Y-91799142D02*
X144242164Y-91549142D01*
X144242164Y-91549142D02*
X144992164Y-91299142D01*
X144242164Y-90906285D02*
X144242164Y-90834856D01*
X144242164Y-90834856D02*
X144277878Y-90763428D01*
X144277878Y-90763428D02*
X144313592Y-90727714D01*
X144313592Y-90727714D02*
X144385021Y-90691999D01*
X144385021Y-90691999D02*
X144527878Y-90656285D01*
X144527878Y-90656285D02*
X144706450Y-90656285D01*
X144706450Y-90656285D02*
X144849307Y-90691999D01*
X144849307Y-90691999D02*
X144920735Y-90727714D01*
X144920735Y-90727714D02*
X144956450Y-90763428D01*
X144956450Y-90763428D02*
X144992164Y-90834856D01*
X144992164Y-90834856D02*
X144992164Y-90906285D01*
X144992164Y-90906285D02*
X144956450Y-90977714D01*
X144956450Y-90977714D02*
X144920735Y-91013428D01*
X144920735Y-91013428D02*
X144849307Y-91049142D01*
X144849307Y-91049142D02*
X144706450Y-91084856D01*
X144706450Y-91084856D02*
X144527878Y-91084856D01*
X144527878Y-91084856D02*
X144385021Y-91049142D01*
X144385021Y-91049142D02*
X144313592Y-91013428D01*
X144313592Y-91013428D02*
X144277878Y-90977714D01*
X144277878Y-90977714D02*
X144242164Y-90906285D01*
X135668381Y-83893819D02*
X135668381Y-82893819D01*
X135668381Y-83370009D02*
X136239809Y-83370009D01*
X136239809Y-83893819D02*
X136239809Y-82893819D01*
X136716000Y-83893819D02*
X136716000Y-82893819D01*
X137715999Y-82941438D02*
X137620761Y-82893819D01*
X137620761Y-82893819D02*
X137477904Y-82893819D01*
X137477904Y-82893819D02*
X137335047Y-82941438D01*
X137335047Y-82941438D02*
X137239809Y-83036676D01*
X137239809Y-83036676D02*
X137192190Y-83131914D01*
X137192190Y-83131914D02*
X137144571Y-83322390D01*
X137144571Y-83322390D02*
X137144571Y-83465247D01*
X137144571Y-83465247D02*
X137192190Y-83655723D01*
X137192190Y-83655723D02*
X137239809Y-83750961D01*
X137239809Y-83750961D02*
X137335047Y-83846200D01*
X137335047Y-83846200D02*
X137477904Y-83893819D01*
X137477904Y-83893819D02*
X137573142Y-83893819D01*
X137573142Y-83893819D02*
X137715999Y-83846200D01*
X137715999Y-83846200D02*
X137763618Y-83798580D01*
X137763618Y-83798580D02*
X137763618Y-83465247D01*
X137763618Y-83465247D02*
X137573142Y-83465247D01*
X138192190Y-83893819D02*
X138192190Y-82893819D01*
X138192190Y-83370009D02*
X138763618Y-83370009D01*
X138763618Y-83893819D02*
X138763618Y-82893819D01*
X139858857Y-82893819D02*
X140192190Y-83893819D01*
X140192190Y-83893819D02*
X140525523Y-82893819D01*
X141049333Y-82893819D02*
X141239809Y-82893819D01*
X141239809Y-82893819D02*
X141335047Y-82941438D01*
X141335047Y-82941438D02*
X141430285Y-83036676D01*
X141430285Y-83036676D02*
X141477904Y-83227152D01*
X141477904Y-83227152D02*
X141477904Y-83560485D01*
X141477904Y-83560485D02*
X141430285Y-83750961D01*
X141430285Y-83750961D02*
X141335047Y-83846200D01*
X141335047Y-83846200D02*
X141239809Y-83893819D01*
X141239809Y-83893819D02*
X141049333Y-83893819D01*
X141049333Y-83893819D02*
X140954095Y-83846200D01*
X140954095Y-83846200D02*
X140858857Y-83750961D01*
X140858857Y-83750961D02*
X140811238Y-83560485D01*
X140811238Y-83560485D02*
X140811238Y-83227152D01*
X140811238Y-83227152D02*
X140858857Y-83036676D01*
X140858857Y-83036676D02*
X140954095Y-82941438D01*
X140954095Y-82941438D02*
X141049333Y-82893819D01*
X142382666Y-83893819D02*
X141906476Y-83893819D01*
X141906476Y-83893819D02*
X141906476Y-82893819D01*
X142573143Y-82893819D02*
X143144571Y-82893819D01*
X142858857Y-83893819D02*
X142858857Y-82893819D01*
X143430286Y-83608104D02*
X143906476Y-83608104D01*
X143335048Y-83893819D02*
X143668381Y-82893819D01*
X143668381Y-82893819D02*
X144001714Y-83893819D01*
X144858857Y-82941438D02*
X144763619Y-82893819D01*
X144763619Y-82893819D02*
X144620762Y-82893819D01*
X144620762Y-82893819D02*
X144477905Y-82941438D01*
X144477905Y-82941438D02*
X144382667Y-83036676D01*
X144382667Y-83036676D02*
X144335048Y-83131914D01*
X144335048Y-83131914D02*
X144287429Y-83322390D01*
X144287429Y-83322390D02*
X144287429Y-83465247D01*
X144287429Y-83465247D02*
X144335048Y-83655723D01*
X144335048Y-83655723D02*
X144382667Y-83750961D01*
X144382667Y-83750961D02*
X144477905Y-83846200D01*
X144477905Y-83846200D02*
X144620762Y-83893819D01*
X144620762Y-83893819D02*
X144716000Y-83893819D01*
X144716000Y-83893819D02*
X144858857Y-83846200D01*
X144858857Y-83846200D02*
X144906476Y-83798580D01*
X144906476Y-83798580D02*
X144906476Y-83465247D01*
X144906476Y-83465247D02*
X144716000Y-83465247D01*
X145335048Y-83370009D02*
X145668381Y-83370009D01*
X145811238Y-83893819D02*
X145335048Y-83893819D01*
X145335048Y-83893819D02*
X145335048Y-82893819D01*
X145335048Y-82893819D02*
X145811238Y-82893819D01*
X154082714Y-103578819D02*
X153511286Y-103578819D01*
X153797000Y-103578819D02*
X153797000Y-102578819D01*
X153797000Y-102578819D02*
X153701762Y-102721676D01*
X153701762Y-102721676D02*
X153606524Y-102816914D01*
X153606524Y-102816914D02*
X153511286Y-102864533D01*
X133183428Y-98522164D02*
X133647714Y-98522164D01*
X133647714Y-98522164D02*
X133397714Y-98807878D01*
X133397714Y-98807878D02*
X133504857Y-98807878D01*
X133504857Y-98807878D02*
X133576286Y-98843592D01*
X133576286Y-98843592D02*
X133612000Y-98879307D01*
X133612000Y-98879307D02*
X133647714Y-98950735D01*
X133647714Y-98950735D02*
X133647714Y-99129307D01*
X133647714Y-99129307D02*
X133612000Y-99200735D01*
X133612000Y-99200735D02*
X133576286Y-99236450D01*
X133576286Y-99236450D02*
X133504857Y-99272164D01*
X133504857Y-99272164D02*
X133290571Y-99272164D01*
X133290571Y-99272164D02*
X133219143Y-99236450D01*
X133219143Y-99236450D02*
X133183428Y-99200735D01*
X133862000Y-98522164D02*
X134112000Y-99272164D01*
X134112000Y-99272164D02*
X134362000Y-98522164D01*
X134540571Y-98522164D02*
X135004857Y-98522164D01*
X135004857Y-98522164D02*
X134754857Y-98807878D01*
X134754857Y-98807878D02*
X134862000Y-98807878D01*
X134862000Y-98807878D02*
X134933429Y-98843592D01*
X134933429Y-98843592D02*
X134969143Y-98879307D01*
X134969143Y-98879307D02*
X135004857Y-98950735D01*
X135004857Y-98950735D02*
X135004857Y-99129307D01*
X135004857Y-99129307D02*
X134969143Y-99200735D01*
X134969143Y-99200735D02*
X134933429Y-99236450D01*
X134933429Y-99236450D02*
X134862000Y-99272164D01*
X134862000Y-99272164D02*
X134647714Y-99272164D01*
X134647714Y-99272164D02*
X134576286Y-99236450D01*
X134576286Y-99236450D02*
X134540571Y-99200735D01*
X149330142Y-92215735D02*
X149294428Y-92251450D01*
X149294428Y-92251450D02*
X149187285Y-92287164D01*
X149187285Y-92287164D02*
X149115857Y-92287164D01*
X149115857Y-92287164D02*
X149008714Y-92251450D01*
X149008714Y-92251450D02*
X148937285Y-92180021D01*
X148937285Y-92180021D02*
X148901571Y-92108592D01*
X148901571Y-92108592D02*
X148865857Y-91965735D01*
X148865857Y-91965735D02*
X148865857Y-91858592D01*
X148865857Y-91858592D02*
X148901571Y-91715735D01*
X148901571Y-91715735D02*
X148937285Y-91644307D01*
X148937285Y-91644307D02*
X149008714Y-91572878D01*
X149008714Y-91572878D02*
X149115857Y-91537164D01*
X149115857Y-91537164D02*
X149187285Y-91537164D01*
X149187285Y-91537164D02*
X149294428Y-91572878D01*
X149294428Y-91572878D02*
X149330142Y-91608592D01*
X142658857Y-100669164D02*
X142658857Y-99919164D01*
X142658857Y-99919164D02*
X142944571Y-99919164D01*
X142944571Y-99919164D02*
X143016000Y-99954878D01*
X143016000Y-99954878D02*
X143051714Y-99990592D01*
X143051714Y-99990592D02*
X143087428Y-100062021D01*
X143087428Y-100062021D02*
X143087428Y-100169164D01*
X143087428Y-100169164D02*
X143051714Y-100240592D01*
X143051714Y-100240592D02*
X143016000Y-100276307D01*
X143016000Y-100276307D02*
X142944571Y-100312021D01*
X142944571Y-100312021D02*
X142658857Y-100312021D01*
X143373143Y-100454878D02*
X143730286Y-100454878D01*
X143301714Y-100669164D02*
X143551714Y-99919164D01*
X143551714Y-99919164D02*
X143801714Y-100669164D01*
X144444571Y-100669164D02*
X144016000Y-100669164D01*
X144230285Y-100669164D02*
X144230285Y-99919164D01*
X144230285Y-99919164D02*
X144158857Y-100026307D01*
X144158857Y-100026307D02*
X144087428Y-100097735D01*
X144087428Y-100097735D02*
X144016000Y-100133450D01*
X144873143Y-100240592D02*
X144801714Y-100204878D01*
X144801714Y-100204878D02*
X144766000Y-100169164D01*
X144766000Y-100169164D02*
X144730286Y-100097735D01*
X144730286Y-100097735D02*
X144730286Y-100062021D01*
X144730286Y-100062021D02*
X144766000Y-99990592D01*
X144766000Y-99990592D02*
X144801714Y-99954878D01*
X144801714Y-99954878D02*
X144873143Y-99919164D01*
X144873143Y-99919164D02*
X145016000Y-99919164D01*
X145016000Y-99919164D02*
X145087429Y-99954878D01*
X145087429Y-99954878D02*
X145123143Y-99990592D01*
X145123143Y-99990592D02*
X145158857Y-100062021D01*
X145158857Y-100062021D02*
X145158857Y-100097735D01*
X145158857Y-100097735D02*
X145123143Y-100169164D01*
X145123143Y-100169164D02*
X145087429Y-100204878D01*
X145087429Y-100204878D02*
X145016000Y-100240592D01*
X145016000Y-100240592D02*
X144873143Y-100240592D01*
X144873143Y-100240592D02*
X144801714Y-100276307D01*
X144801714Y-100276307D02*
X144766000Y-100312021D01*
X144766000Y-100312021D02*
X144730286Y-100383450D01*
X144730286Y-100383450D02*
X144730286Y-100526307D01*
X144730286Y-100526307D02*
X144766000Y-100597735D01*
X144766000Y-100597735D02*
X144801714Y-100633450D01*
X144801714Y-100633450D02*
X144873143Y-100669164D01*
X144873143Y-100669164D02*
X145016000Y-100669164D01*
X145016000Y-100669164D02*
X145087429Y-100633450D01*
X145087429Y-100633450D02*
X145123143Y-100597735D01*
X145123143Y-100597735D02*
X145158857Y-100526307D01*
X145158857Y-100526307D02*
X145158857Y-100383450D01*
X145158857Y-100383450D02*
X145123143Y-100312021D01*
X145123143Y-100312021D02*
X145087429Y-100276307D01*
X145087429Y-100276307D02*
X145016000Y-100240592D01*
X124913000Y-105118819D02*
X125246333Y-106118819D01*
X125246333Y-106118819D02*
X125579666Y-105118819D01*
X126246333Y-105595009D02*
X126389190Y-105642628D01*
X126389190Y-105642628D02*
X126436809Y-105690247D01*
X126436809Y-105690247D02*
X126484428Y-105785485D01*
X126484428Y-105785485D02*
X126484428Y-105928342D01*
X126484428Y-105928342D02*
X126436809Y-106023580D01*
X126436809Y-106023580D02*
X126389190Y-106071200D01*
X126389190Y-106071200D02*
X126293952Y-106118819D01*
X126293952Y-106118819D02*
X125913000Y-106118819D01*
X125913000Y-106118819D02*
X125913000Y-105118819D01*
X125913000Y-105118819D02*
X126246333Y-105118819D01*
X126246333Y-105118819D02*
X126341571Y-105166438D01*
X126341571Y-105166438D02*
X126389190Y-105214057D01*
X126389190Y-105214057D02*
X126436809Y-105309295D01*
X126436809Y-105309295D02*
X126436809Y-105404533D01*
X126436809Y-105404533D02*
X126389190Y-105499771D01*
X126389190Y-105499771D02*
X126341571Y-105547390D01*
X126341571Y-105547390D02*
X126246333Y-105595009D01*
X126246333Y-105595009D02*
X125913000Y-105595009D01*
X126865381Y-105833104D02*
X127341571Y-105833104D01*
X126770143Y-106118819D02*
X127103476Y-105118819D01*
X127103476Y-105118819D02*
X127436809Y-106118819D01*
X127627286Y-105118819D02*
X128198714Y-105118819D01*
X127913000Y-106118819D02*
X127913000Y-105118819D01*
X129722524Y-105118819D02*
X129532048Y-105118819D01*
X129532048Y-105118819D02*
X129436810Y-105166438D01*
X129436810Y-105166438D02*
X129389191Y-105214057D01*
X129389191Y-105214057D02*
X129293953Y-105356914D01*
X129293953Y-105356914D02*
X129246334Y-105547390D01*
X129246334Y-105547390D02*
X129246334Y-105928342D01*
X129246334Y-105928342D02*
X129293953Y-106023580D01*
X129293953Y-106023580D02*
X129341572Y-106071200D01*
X129341572Y-106071200D02*
X129436810Y-106118819D01*
X129436810Y-106118819D02*
X129627286Y-106118819D01*
X129627286Y-106118819D02*
X129722524Y-106071200D01*
X129722524Y-106071200D02*
X129770143Y-106023580D01*
X129770143Y-106023580D02*
X129817762Y-105928342D01*
X129817762Y-105928342D02*
X129817762Y-105690247D01*
X129817762Y-105690247D02*
X129770143Y-105595009D01*
X129770143Y-105595009D02*
X129722524Y-105547390D01*
X129722524Y-105547390D02*
X129627286Y-105499771D01*
X129627286Y-105499771D02*
X129436810Y-105499771D01*
X129436810Y-105499771D02*
X129341572Y-105547390D01*
X129341572Y-105547390D02*
X129293953Y-105595009D01*
X129293953Y-105595009D02*
X129246334Y-105690247D01*
X130246334Y-105737866D02*
X131008239Y-105737866D01*
X132008238Y-106118819D02*
X131436810Y-106118819D01*
X131722524Y-106118819D02*
X131722524Y-105118819D01*
X131722524Y-105118819D02*
X131627286Y-105261676D01*
X131627286Y-105261676D02*
X131532048Y-105356914D01*
X131532048Y-105356914D02*
X131436810Y-105404533D01*
X132389191Y-105214057D02*
X132436810Y-105166438D01*
X132436810Y-105166438D02*
X132532048Y-105118819D01*
X132532048Y-105118819D02*
X132770143Y-105118819D01*
X132770143Y-105118819D02*
X132865381Y-105166438D01*
X132865381Y-105166438D02*
X132913000Y-105214057D01*
X132913000Y-105214057D02*
X132960619Y-105309295D01*
X132960619Y-105309295D02*
X132960619Y-105404533D01*
X132960619Y-105404533D02*
X132913000Y-105547390D01*
X132913000Y-105547390D02*
X132341572Y-106118819D01*
X132341572Y-106118819D02*
X132960619Y-106118819D01*
X133246334Y-105118819D02*
X133579667Y-106118819D01*
X133579667Y-106118819D02*
X133913000Y-105118819D01*
X164285714Y-102954819D02*
X163714286Y-102954819D01*
X164000000Y-102954819D02*
X164000000Y-101954819D01*
X164000000Y-101954819D02*
X163904762Y-102097676D01*
X163904762Y-102097676D02*
X163809524Y-102192914D01*
X163809524Y-102192914D02*
X163714286Y-102240533D01*
X122301095Y-98816438D02*
X122205857Y-98768819D01*
X122205857Y-98768819D02*
X122063000Y-98768819D01*
X122063000Y-98768819D02*
X121920143Y-98816438D01*
X121920143Y-98816438D02*
X121824905Y-98911676D01*
X121824905Y-98911676D02*
X121777286Y-99006914D01*
X121777286Y-99006914D02*
X121729667Y-99197390D01*
X121729667Y-99197390D02*
X121729667Y-99340247D01*
X121729667Y-99340247D02*
X121777286Y-99530723D01*
X121777286Y-99530723D02*
X121824905Y-99625961D01*
X121824905Y-99625961D02*
X121920143Y-99721200D01*
X121920143Y-99721200D02*
X122063000Y-99768819D01*
X122063000Y-99768819D02*
X122158238Y-99768819D01*
X122158238Y-99768819D02*
X122301095Y-99721200D01*
X122301095Y-99721200D02*
X122348714Y-99673580D01*
X122348714Y-99673580D02*
X122348714Y-99340247D01*
X122348714Y-99340247D02*
X122158238Y-99340247D01*
X122777286Y-99768819D02*
X122777286Y-98768819D01*
X122777286Y-98768819D02*
X123348714Y-99768819D01*
X123348714Y-99768819D02*
X123348714Y-98768819D01*
X123824905Y-99768819D02*
X123824905Y-98768819D01*
X123824905Y-98768819D02*
X124063000Y-98768819D01*
X124063000Y-98768819D02*
X124205857Y-98816438D01*
X124205857Y-98816438D02*
X124301095Y-98911676D01*
X124301095Y-98911676D02*
X124348714Y-99006914D01*
X124348714Y-99006914D02*
X124396333Y-99197390D01*
X124396333Y-99197390D02*
X124396333Y-99340247D01*
X124396333Y-99340247D02*
X124348714Y-99530723D01*
X124348714Y-99530723D02*
X124301095Y-99625961D01*
X124301095Y-99625961D02*
X124205857Y-99721200D01*
X124205857Y-99721200D02*
X124063000Y-99768819D01*
X124063000Y-99768819D02*
X123824905Y-99768819D01*
X181451285Y-76750152D02*
X181451285Y-77416819D01*
X181213190Y-76369200D02*
X180975095Y-77083485D01*
X180975095Y-77083485D02*
X181594142Y-77083485D01*
X181927476Y-76512057D02*
X181975095Y-76464438D01*
X181975095Y-76464438D02*
X182070333Y-76416819D01*
X182070333Y-76416819D02*
X182308428Y-76416819D01*
X182308428Y-76416819D02*
X182403666Y-76464438D01*
X182403666Y-76464438D02*
X182451285Y-76512057D01*
X182451285Y-76512057D02*
X182498904Y-76607295D01*
X182498904Y-76607295D02*
X182498904Y-76702533D01*
X182498904Y-76702533D02*
X182451285Y-76845390D01*
X182451285Y-76845390D02*
X181879857Y-77416819D01*
X181879857Y-77416819D02*
X182498904Y-77416819D01*
X133588143Y-94458164D02*
X133231000Y-94458164D01*
X133231000Y-94458164D02*
X133195286Y-94815307D01*
X133195286Y-94815307D02*
X133231000Y-94779592D01*
X133231000Y-94779592D02*
X133302429Y-94743878D01*
X133302429Y-94743878D02*
X133481000Y-94743878D01*
X133481000Y-94743878D02*
X133552429Y-94779592D01*
X133552429Y-94779592D02*
X133588143Y-94815307D01*
X133588143Y-94815307D02*
X133623857Y-94886735D01*
X133623857Y-94886735D02*
X133623857Y-95065307D01*
X133623857Y-95065307D02*
X133588143Y-95136735D01*
X133588143Y-95136735D02*
X133552429Y-95172450D01*
X133552429Y-95172450D02*
X133481000Y-95208164D01*
X133481000Y-95208164D02*
X133302429Y-95208164D01*
X133302429Y-95208164D02*
X133231000Y-95172450D01*
X133231000Y-95172450D02*
X133195286Y-95136735D01*
X133838143Y-94458164D02*
X134088143Y-95208164D01*
X134088143Y-95208164D02*
X134338143Y-94458164D01*
X176911095Y-103055057D02*
X176958714Y-103007438D01*
X176958714Y-103007438D02*
X177053952Y-102959819D01*
X177053952Y-102959819D02*
X177292047Y-102959819D01*
X177292047Y-102959819D02*
X177387285Y-103007438D01*
X177387285Y-103007438D02*
X177434904Y-103055057D01*
X177434904Y-103055057D02*
X177482523Y-103150295D01*
X177482523Y-103150295D02*
X177482523Y-103245533D01*
X177482523Y-103245533D02*
X177434904Y-103388390D01*
X177434904Y-103388390D02*
X176863476Y-103959819D01*
X176863476Y-103959819D02*
X177482523Y-103959819D01*
X178101571Y-102959819D02*
X178196809Y-102959819D01*
X178196809Y-102959819D02*
X178292047Y-103007438D01*
X178292047Y-103007438D02*
X178339666Y-103055057D01*
X178339666Y-103055057D02*
X178387285Y-103150295D01*
X178387285Y-103150295D02*
X178434904Y-103340771D01*
X178434904Y-103340771D02*
X178434904Y-103578866D01*
X178434904Y-103578866D02*
X178387285Y-103769342D01*
X178387285Y-103769342D02*
X178339666Y-103864580D01*
X178339666Y-103864580D02*
X178292047Y-103912200D01*
X178292047Y-103912200D02*
X178196809Y-103959819D01*
X178196809Y-103959819D02*
X178101571Y-103959819D01*
X178101571Y-103959819D02*
X178006333Y-103912200D01*
X178006333Y-103912200D02*
X177958714Y-103864580D01*
X177958714Y-103864580D02*
X177911095Y-103769342D01*
X177911095Y-103769342D02*
X177863476Y-103578866D01*
X177863476Y-103578866D02*
X177863476Y-103340771D01*
X177863476Y-103340771D02*
X177911095Y-103150295D01*
X177911095Y-103150295D02*
X177958714Y-103055057D01*
X177958714Y-103055057D02*
X178006333Y-103007438D01*
X178006333Y-103007438D02*
X178101571Y-102959819D01*
X121959809Y-83909819D02*
X122150285Y-83909819D01*
X122150285Y-83909819D02*
X122245523Y-83957438D01*
X122245523Y-83957438D02*
X122340761Y-84052676D01*
X122340761Y-84052676D02*
X122388380Y-84243152D01*
X122388380Y-84243152D02*
X122388380Y-84576485D01*
X122388380Y-84576485D02*
X122340761Y-84766961D01*
X122340761Y-84766961D02*
X122245523Y-84862200D01*
X122245523Y-84862200D02*
X122150285Y-84909819D01*
X122150285Y-84909819D02*
X121959809Y-84909819D01*
X121959809Y-84909819D02*
X121864571Y-84862200D01*
X121864571Y-84862200D02*
X121769333Y-84766961D01*
X121769333Y-84766961D02*
X121721714Y-84576485D01*
X121721714Y-84576485D02*
X121721714Y-84243152D01*
X121721714Y-84243152D02*
X121769333Y-84052676D01*
X121769333Y-84052676D02*
X121864571Y-83957438D01*
X121864571Y-83957438D02*
X121959809Y-83909819D01*
X122816952Y-84909819D02*
X122816952Y-83909819D01*
X122816952Y-83909819D02*
X123197904Y-83909819D01*
X123197904Y-83909819D02*
X123293142Y-83957438D01*
X123293142Y-83957438D02*
X123340761Y-84005057D01*
X123340761Y-84005057D02*
X123388380Y-84100295D01*
X123388380Y-84100295D02*
X123388380Y-84243152D01*
X123388380Y-84243152D02*
X123340761Y-84338390D01*
X123340761Y-84338390D02*
X123293142Y-84386009D01*
X123293142Y-84386009D02*
X123197904Y-84433628D01*
X123197904Y-84433628D02*
X122816952Y-84433628D01*
X123674095Y-83909819D02*
X124245523Y-83909819D01*
X123959809Y-84909819D02*
X123959809Y-83909819D01*
X172904762Y-102383390D02*
X172809524Y-102335771D01*
X172809524Y-102335771D02*
X172761905Y-102288152D01*
X172761905Y-102288152D02*
X172714286Y-102192914D01*
X172714286Y-102192914D02*
X172714286Y-102145295D01*
X172714286Y-102145295D02*
X172761905Y-102050057D01*
X172761905Y-102050057D02*
X172809524Y-102002438D01*
X172809524Y-102002438D02*
X172904762Y-101954819D01*
X172904762Y-101954819D02*
X173095238Y-101954819D01*
X173095238Y-101954819D02*
X173190476Y-102002438D01*
X173190476Y-102002438D02*
X173238095Y-102050057D01*
X173238095Y-102050057D02*
X173285714Y-102145295D01*
X173285714Y-102145295D02*
X173285714Y-102192914D01*
X173285714Y-102192914D02*
X173238095Y-102288152D01*
X173238095Y-102288152D02*
X173190476Y-102335771D01*
X173190476Y-102335771D02*
X173095238Y-102383390D01*
X173095238Y-102383390D02*
X172904762Y-102383390D01*
X172904762Y-102383390D02*
X172809524Y-102431009D01*
X172809524Y-102431009D02*
X172761905Y-102478628D01*
X172761905Y-102478628D02*
X172714286Y-102573866D01*
X172714286Y-102573866D02*
X172714286Y-102764342D01*
X172714286Y-102764342D02*
X172761905Y-102859580D01*
X172761905Y-102859580D02*
X172809524Y-102907200D01*
X172809524Y-102907200D02*
X172904762Y-102954819D01*
X172904762Y-102954819D02*
X173095238Y-102954819D01*
X173095238Y-102954819D02*
X173190476Y-102907200D01*
X173190476Y-102907200D02*
X173238095Y-102859580D01*
X173238095Y-102859580D02*
X173285714Y-102764342D01*
X173285714Y-102764342D02*
X173285714Y-102573866D01*
X173285714Y-102573866D02*
X173238095Y-102478628D01*
X173238095Y-102478628D02*
X173190476Y-102431009D01*
X173190476Y-102431009D02*
X173095238Y-102383390D01*
X131643485Y-103190827D02*
X131679200Y-103226541D01*
X131679200Y-103226541D02*
X131714914Y-103333684D01*
X131714914Y-103333684D02*
X131714914Y-103405112D01*
X131714914Y-103405112D02*
X131679200Y-103512255D01*
X131679200Y-103512255D02*
X131607771Y-103583684D01*
X131607771Y-103583684D02*
X131536342Y-103619398D01*
X131536342Y-103619398D02*
X131393485Y-103655112D01*
X131393485Y-103655112D02*
X131286342Y-103655112D01*
X131286342Y-103655112D02*
X131143485Y-103619398D01*
X131143485Y-103619398D02*
X131072057Y-103583684D01*
X131072057Y-103583684D02*
X131000628Y-103512255D01*
X131000628Y-103512255D02*
X130964914Y-103405112D01*
X130964914Y-103405112D02*
X130964914Y-103333684D01*
X130964914Y-103333684D02*
X131000628Y-103226541D01*
X131000628Y-103226541D02*
X131036342Y-103190827D01*
X131286342Y-102762255D02*
X131250628Y-102833684D01*
X131250628Y-102833684D02*
X131214914Y-102869398D01*
X131214914Y-102869398D02*
X131143485Y-102905112D01*
X131143485Y-102905112D02*
X131107771Y-102905112D01*
X131107771Y-102905112D02*
X131036342Y-102869398D01*
X131036342Y-102869398D02*
X131000628Y-102833684D01*
X131000628Y-102833684D02*
X130964914Y-102762255D01*
X130964914Y-102762255D02*
X130964914Y-102619398D01*
X130964914Y-102619398D02*
X131000628Y-102547970D01*
X131000628Y-102547970D02*
X131036342Y-102512255D01*
X131036342Y-102512255D02*
X131107771Y-102476541D01*
X131107771Y-102476541D02*
X131143485Y-102476541D01*
X131143485Y-102476541D02*
X131214914Y-102512255D01*
X131214914Y-102512255D02*
X131250628Y-102547970D01*
X131250628Y-102547970D02*
X131286342Y-102619398D01*
X131286342Y-102619398D02*
X131286342Y-102762255D01*
X131286342Y-102762255D02*
X131322057Y-102833684D01*
X131322057Y-102833684D02*
X131357771Y-102869398D01*
X131357771Y-102869398D02*
X131429200Y-102905112D01*
X131429200Y-102905112D02*
X131572057Y-102905112D01*
X131572057Y-102905112D02*
X131643485Y-102869398D01*
X131643485Y-102869398D02*
X131679200Y-102833684D01*
X131679200Y-102833684D02*
X131714914Y-102762255D01*
X131714914Y-102762255D02*
X131714914Y-102619398D01*
X131714914Y-102619398D02*
X131679200Y-102547970D01*
X131679200Y-102547970D02*
X131643485Y-102512255D01*
X131643485Y-102512255D02*
X131572057Y-102476541D01*
X131572057Y-102476541D02*
X131429200Y-102476541D01*
X131429200Y-102476541D02*
X131357771Y-102512255D01*
X131357771Y-102512255D02*
X131322057Y-102547970D01*
X131322057Y-102547970D02*
X131286342Y-102619398D01*
X125663172Y-97861485D02*
X125627458Y-97897200D01*
X125627458Y-97897200D02*
X125520315Y-97932914D01*
X125520315Y-97932914D02*
X125448887Y-97932914D01*
X125448887Y-97932914D02*
X125341744Y-97897200D01*
X125341744Y-97897200D02*
X125270315Y-97825771D01*
X125270315Y-97825771D02*
X125234601Y-97754342D01*
X125234601Y-97754342D02*
X125198887Y-97611485D01*
X125198887Y-97611485D02*
X125198887Y-97504342D01*
X125198887Y-97504342D02*
X125234601Y-97361485D01*
X125234601Y-97361485D02*
X125270315Y-97290057D01*
X125270315Y-97290057D02*
X125341744Y-97218628D01*
X125341744Y-97218628D02*
X125448887Y-97182914D01*
X125448887Y-97182914D02*
X125520315Y-97182914D01*
X125520315Y-97182914D02*
X125627458Y-97218628D01*
X125627458Y-97218628D02*
X125663172Y-97254342D01*
X126377458Y-97932914D02*
X125948887Y-97932914D01*
X126163172Y-97932914D02*
X126163172Y-97182914D01*
X126163172Y-97182914D02*
X126091744Y-97290057D01*
X126091744Y-97290057D02*
X126020315Y-97361485D01*
X126020315Y-97361485D02*
X125948887Y-97397200D01*
D13*
X149855162Y-103217162D02*
X149818393Y-103253932D01*
X149818393Y-103253932D02*
X149708084Y-103290701D01*
X149708084Y-103290701D02*
X149634545Y-103290701D01*
X149634545Y-103290701D02*
X149524237Y-103253932D01*
X149524237Y-103253932D02*
X149450698Y-103180392D01*
X149450698Y-103180392D02*
X149413928Y-103106853D01*
X149413928Y-103106853D02*
X149377159Y-102959775D01*
X149377159Y-102959775D02*
X149377159Y-102849467D01*
X149377159Y-102849467D02*
X149413928Y-102702389D01*
X149413928Y-102702389D02*
X149450698Y-102628850D01*
X149450698Y-102628850D02*
X149524237Y-102555311D01*
X149524237Y-102555311D02*
X149634545Y-102518541D01*
X149634545Y-102518541D02*
X149708084Y-102518541D01*
X149708084Y-102518541D02*
X149818393Y-102555311D01*
X149818393Y-102555311D02*
X149855162Y-102592080D01*
X150186088Y-103290701D02*
X150186088Y-102518541D01*
X150186088Y-102518541D02*
X150627322Y-103290701D01*
X150627322Y-103290701D02*
X150627322Y-102518541D01*
X151399483Y-103290701D02*
X150958249Y-103290701D01*
X151178866Y-103290701D02*
X151178866Y-102518541D01*
X151178866Y-102518541D02*
X151105327Y-102628850D01*
X151105327Y-102628850D02*
X151031788Y-102702389D01*
X151031788Y-102702389D02*
X150958249Y-102739158D01*
X148453059Y-99171813D02*
X148379520Y-99135044D01*
X148379520Y-99135044D02*
X148305981Y-99061505D01*
X148305981Y-99061505D02*
X148195673Y-98951196D01*
X148195673Y-98951196D02*
X148122134Y-98914426D01*
X148122134Y-98914426D02*
X148048595Y-98914426D01*
X148085364Y-99098274D02*
X148011825Y-99061505D01*
X148011825Y-99061505D02*
X147938286Y-98987965D01*
X147938286Y-98987965D02*
X147901517Y-98840887D01*
X147901517Y-98840887D02*
X147901517Y-98583501D01*
X147901517Y-98583501D02*
X147938286Y-98436423D01*
X147938286Y-98436423D02*
X148011825Y-98362884D01*
X148011825Y-98362884D02*
X148085364Y-98326114D01*
X148085364Y-98326114D02*
X148232442Y-98326114D01*
X148232442Y-98326114D02*
X148305981Y-98362884D01*
X148305981Y-98362884D02*
X148379520Y-98436423D01*
X148379520Y-98436423D02*
X148416290Y-98583501D01*
X148416290Y-98583501D02*
X148416290Y-98840887D01*
X148416290Y-98840887D02*
X148379520Y-98987965D01*
X148379520Y-98987965D02*
X148305981Y-99061505D01*
X148305981Y-99061505D02*
X148232442Y-99098274D01*
X148232442Y-99098274D02*
X148085364Y-99098274D01*
X148710447Y-98399653D02*
X148747216Y-98362884D01*
X148747216Y-98362884D02*
X148820755Y-98326114D01*
X148820755Y-98326114D02*
X149004603Y-98326114D01*
X149004603Y-98326114D02*
X149078142Y-98362884D01*
X149078142Y-98362884D02*
X149114911Y-98399653D01*
X149114911Y-98399653D02*
X149151681Y-98473192D01*
X149151681Y-98473192D02*
X149151681Y-98546731D01*
X149151681Y-98546731D02*
X149114911Y-98657040D01*
X149114911Y-98657040D02*
X148673677Y-99098274D01*
X148673677Y-99098274D02*
X149151681Y-99098274D01*
X140356286Y-93370274D02*
X140356286Y-92598114D01*
X141165215Y-93296735D02*
X141128446Y-93333505D01*
X141128446Y-93333505D02*
X141018137Y-93370274D01*
X141018137Y-93370274D02*
X140944598Y-93370274D01*
X140944598Y-93370274D02*
X140834290Y-93333505D01*
X140834290Y-93333505D02*
X140760751Y-93259965D01*
X140760751Y-93259965D02*
X140723981Y-93186426D01*
X140723981Y-93186426D02*
X140687212Y-93039348D01*
X140687212Y-93039348D02*
X140687212Y-92929040D01*
X140687212Y-92929040D02*
X140723981Y-92781962D01*
X140723981Y-92781962D02*
X140760751Y-92708423D01*
X140760751Y-92708423D02*
X140834290Y-92634884D01*
X140834290Y-92634884D02*
X140944598Y-92598114D01*
X140944598Y-92598114D02*
X141018137Y-92598114D01*
X141018137Y-92598114D02*
X141128446Y-92634884D01*
X141128446Y-92634884D02*
X141165215Y-92671653D01*
X141422602Y-92598114D02*
X141900606Y-92598114D01*
X141900606Y-92598114D02*
X141643219Y-92892270D01*
X141643219Y-92892270D02*
X141753528Y-92892270D01*
X141753528Y-92892270D02*
X141827067Y-92929040D01*
X141827067Y-92929040D02*
X141863836Y-92965809D01*
X141863836Y-92965809D02*
X141900606Y-93039348D01*
X141900606Y-93039348D02*
X141900606Y-93223196D01*
X141900606Y-93223196D02*
X141863836Y-93296735D01*
X141863836Y-93296735D02*
X141827067Y-93333505D01*
X141827067Y-93333505D02*
X141753528Y-93370274D01*
X141753528Y-93370274D02*
X141532911Y-93370274D01*
X141532911Y-93370274D02*
X141459372Y-93333505D01*
X141459372Y-93333505D02*
X141422602Y-93296735D01*
X151973520Y-97741735D02*
X151936751Y-97778505D01*
X151936751Y-97778505D02*
X151826442Y-97815274D01*
X151826442Y-97815274D02*
X151752903Y-97815274D01*
X151752903Y-97815274D02*
X151642595Y-97778505D01*
X151642595Y-97778505D02*
X151569056Y-97704965D01*
X151569056Y-97704965D02*
X151532286Y-97631426D01*
X151532286Y-97631426D02*
X151495517Y-97484348D01*
X151495517Y-97484348D02*
X151495517Y-97374040D01*
X151495517Y-97374040D02*
X151532286Y-97226962D01*
X151532286Y-97226962D02*
X151569056Y-97153423D01*
X151569056Y-97153423D02*
X151642595Y-97079884D01*
X151642595Y-97079884D02*
X151752903Y-97043114D01*
X151752903Y-97043114D02*
X151826442Y-97043114D01*
X151826442Y-97043114D02*
X151936751Y-97079884D01*
X151936751Y-97079884D02*
X151973520Y-97116653D01*
X152230907Y-97043114D02*
X152708911Y-97043114D01*
X152708911Y-97043114D02*
X152451524Y-97337270D01*
X152451524Y-97337270D02*
X152561833Y-97337270D01*
X152561833Y-97337270D02*
X152635372Y-97374040D01*
X152635372Y-97374040D02*
X152672141Y-97410809D01*
X152672141Y-97410809D02*
X152708911Y-97484348D01*
X152708911Y-97484348D02*
X152708911Y-97668196D01*
X152708911Y-97668196D02*
X152672141Y-97741735D01*
X152672141Y-97741735D02*
X152635372Y-97778505D01*
X152635372Y-97778505D02*
X152561833Y-97815274D01*
X152561833Y-97815274D02*
X152341216Y-97815274D01*
X152341216Y-97815274D02*
X152267677Y-97778505D01*
X152267677Y-97778505D02*
X152230907Y-97741735D01*
X137402631Y-103036701D02*
X137034936Y-103036701D01*
X137034936Y-103036701D02*
X137034936Y-102264541D01*
X138064483Y-103036701D02*
X137623249Y-103036701D01*
X137843866Y-103036701D02*
X137843866Y-102264541D01*
X137843866Y-102264541D02*
X137770327Y-102374850D01*
X137770327Y-102374850D02*
X137696788Y-102448389D01*
X137696788Y-102448389D02*
X137623249Y-102485158D01*
D12*
X137992826Y-98706414D02*
X137742826Y-98349271D01*
X137564255Y-98706414D02*
X137564255Y-97956414D01*
X137564255Y-97956414D02*
X137849969Y-97956414D01*
X137849969Y-97956414D02*
X137921398Y-97992128D01*
X137921398Y-97992128D02*
X137957112Y-98027842D01*
X137957112Y-98027842D02*
X137992826Y-98099271D01*
X137992826Y-98099271D02*
X137992826Y-98206414D01*
X137992826Y-98206414D02*
X137957112Y-98277842D01*
X137957112Y-98277842D02*
X137921398Y-98313557D01*
X137921398Y-98313557D02*
X137849969Y-98349271D01*
X137849969Y-98349271D02*
X137564255Y-98349271D01*
X138707112Y-98706414D02*
X138278541Y-98706414D01*
X138492826Y-98706414D02*
X138492826Y-97956414D01*
X138492826Y-97956414D02*
X138421398Y-98063557D01*
X138421398Y-98063557D02*
X138349969Y-98134985D01*
X138349969Y-98134985D02*
X138278541Y-98170700D01*
D13*
X135407274Y-101772479D02*
X135039579Y-102029865D01*
X135407274Y-102213713D02*
X134635114Y-102213713D01*
X134635114Y-102213713D02*
X134635114Y-101919557D01*
X134635114Y-101919557D02*
X134671884Y-101846018D01*
X134671884Y-101846018D02*
X134708653Y-101809248D01*
X134708653Y-101809248D02*
X134782192Y-101772479D01*
X134782192Y-101772479D02*
X134892501Y-101772479D01*
X134892501Y-101772479D02*
X134966040Y-101809248D01*
X134966040Y-101809248D02*
X135002809Y-101846018D01*
X135002809Y-101846018D02*
X135039579Y-101919557D01*
X135039579Y-101919557D02*
X135039579Y-102213713D01*
X134892501Y-101110627D02*
X135407274Y-101110627D01*
X134598345Y-101294475D02*
X135149887Y-101478322D01*
X135149887Y-101478322D02*
X135149887Y-101000319D01*
D12*
X133203571Y-92956164D02*
X133203571Y-93563307D01*
X133203571Y-93563307D02*
X133239285Y-93634735D01*
X133239285Y-93634735D02*
X133275000Y-93670450D01*
X133275000Y-93670450D02*
X133346428Y-93706164D01*
X133346428Y-93706164D02*
X133489285Y-93706164D01*
X133489285Y-93706164D02*
X133560714Y-93670450D01*
X133560714Y-93670450D02*
X133596428Y-93634735D01*
X133596428Y-93634735D02*
X133632142Y-93563307D01*
X133632142Y-93563307D02*
X133632142Y-92956164D01*
X133953571Y-93027592D02*
X133989285Y-92991878D01*
X133989285Y-92991878D02*
X134060714Y-92956164D01*
X134060714Y-92956164D02*
X134239285Y-92956164D01*
X134239285Y-92956164D02*
X134310714Y-92991878D01*
X134310714Y-92991878D02*
X134346428Y-93027592D01*
X134346428Y-93027592D02*
X134382142Y-93099021D01*
X134382142Y-93099021D02*
X134382142Y-93170450D01*
X134382142Y-93170450D02*
X134346428Y-93277592D01*
X134346428Y-93277592D02*
X133917856Y-93706164D01*
X133917856Y-93706164D02*
X134382142Y-93706164D01*
X133739164Y-90953571D02*
X132989164Y-90953571D01*
X132989164Y-90953571D02*
X132989164Y-90775000D01*
X132989164Y-90775000D02*
X133024878Y-90667857D01*
X133024878Y-90667857D02*
X133096307Y-90596428D01*
X133096307Y-90596428D02*
X133167735Y-90560714D01*
X133167735Y-90560714D02*
X133310592Y-90525000D01*
X133310592Y-90525000D02*
X133417735Y-90525000D01*
X133417735Y-90525000D02*
X133560592Y-90560714D01*
X133560592Y-90560714D02*
X133632021Y-90596428D01*
X133632021Y-90596428D02*
X133703450Y-90667857D01*
X133703450Y-90667857D02*
X133739164Y-90775000D01*
X133739164Y-90775000D02*
X133739164Y-90953571D01*
X133739164Y-89810714D02*
X133739164Y-90239285D01*
X133739164Y-90025000D02*
X132989164Y-90025000D01*
X132989164Y-90025000D02*
X133096307Y-90096428D01*
X133096307Y-90096428D02*
X133167735Y-90167857D01*
X133167735Y-90167857D02*
X133203450Y-90239285D01*
X136340571Y-85695164D02*
X136769143Y-85695164D01*
X136554857Y-86445164D02*
X136554857Y-85695164D01*
X137447714Y-86445164D02*
X137197714Y-86088021D01*
X137019143Y-86445164D02*
X137019143Y-85695164D01*
X137019143Y-85695164D02*
X137304857Y-85695164D01*
X137304857Y-85695164D02*
X137376286Y-85730878D01*
X137376286Y-85730878D02*
X137412000Y-85766592D01*
X137412000Y-85766592D02*
X137447714Y-85838021D01*
X137447714Y-85838021D02*
X137447714Y-85945164D01*
X137447714Y-85945164D02*
X137412000Y-86016592D01*
X137412000Y-86016592D02*
X137376286Y-86052307D01*
X137376286Y-86052307D02*
X137304857Y-86088021D01*
X137304857Y-86088021D02*
X137019143Y-86088021D01*
X138162000Y-86445164D02*
X137733429Y-86445164D01*
X137947714Y-86445164D02*
X137947714Y-85695164D01*
X137947714Y-85695164D02*
X137876286Y-85802307D01*
X137876286Y-85802307D02*
X137804857Y-85873735D01*
X137804857Y-85873735D02*
X137733429Y-85909450D01*
X150963333Y-82274580D02*
X150915714Y-82322200D01*
X150915714Y-82322200D02*
X150772857Y-82369819D01*
X150772857Y-82369819D02*
X150677619Y-82369819D01*
X150677619Y-82369819D02*
X150534762Y-82322200D01*
X150534762Y-82322200D02*
X150439524Y-82226961D01*
X150439524Y-82226961D02*
X150391905Y-82131723D01*
X150391905Y-82131723D02*
X150344286Y-81941247D01*
X150344286Y-81941247D02*
X150344286Y-81798390D01*
X150344286Y-81798390D02*
X150391905Y-81607914D01*
X150391905Y-81607914D02*
X150439524Y-81512676D01*
X150439524Y-81512676D02*
X150534762Y-81417438D01*
X150534762Y-81417438D02*
X150677619Y-81369819D01*
X150677619Y-81369819D02*
X150772857Y-81369819D01*
X150772857Y-81369819D02*
X150915714Y-81417438D01*
X150915714Y-81417438D02*
X150963333Y-81465057D01*
X151820476Y-81703152D02*
X151820476Y-82369819D01*
X151582381Y-81322200D02*
X151344286Y-82036485D01*
X151344286Y-82036485D02*
X151963333Y-82036485D01*
X141560985Y-90226173D02*
X141596700Y-90261887D01*
X141596700Y-90261887D02*
X141632414Y-90369030D01*
X141632414Y-90369030D02*
X141632414Y-90440458D01*
X141632414Y-90440458D02*
X141596700Y-90547601D01*
X141596700Y-90547601D02*
X141525271Y-90619030D01*
X141525271Y-90619030D02*
X141453842Y-90654744D01*
X141453842Y-90654744D02*
X141310985Y-90690458D01*
X141310985Y-90690458D02*
X141203842Y-90690458D01*
X141203842Y-90690458D02*
X141060985Y-90654744D01*
X141060985Y-90654744D02*
X140989557Y-90619030D01*
X140989557Y-90619030D02*
X140918128Y-90547601D01*
X140918128Y-90547601D02*
X140882414Y-90440458D01*
X140882414Y-90440458D02*
X140882414Y-90369030D01*
X140882414Y-90369030D02*
X140918128Y-90261887D01*
X140918128Y-90261887D02*
X140953842Y-90226173D01*
X140882414Y-89547601D02*
X140882414Y-89904744D01*
X140882414Y-89904744D02*
X141239557Y-89940458D01*
X141239557Y-89940458D02*
X141203842Y-89904744D01*
X141203842Y-89904744D02*
X141168128Y-89833316D01*
X141168128Y-89833316D02*
X141168128Y-89654744D01*
X141168128Y-89654744D02*
X141203842Y-89583316D01*
X141203842Y-89583316D02*
X141239557Y-89547601D01*
X141239557Y-89547601D02*
X141310985Y-89511887D01*
X141310985Y-89511887D02*
X141489557Y-89511887D01*
X141489557Y-89511887D02*
X141560985Y-89547601D01*
X141560985Y-89547601D02*
X141596700Y-89583316D01*
X141596700Y-89583316D02*
X141632414Y-89654744D01*
X141632414Y-89654744D02*
X141632414Y-89833316D01*
X141632414Y-89833316D02*
X141596700Y-89904744D01*
X141596700Y-89904744D02*
X141560985Y-89940458D01*
X142056826Y-89109985D02*
X142021112Y-89145700D01*
X142021112Y-89145700D02*
X141913969Y-89181414D01*
X141913969Y-89181414D02*
X141842541Y-89181414D01*
X141842541Y-89181414D02*
X141735398Y-89145700D01*
X141735398Y-89145700D02*
X141663969Y-89074271D01*
X141663969Y-89074271D02*
X141628255Y-89002842D01*
X141628255Y-89002842D02*
X141592541Y-88859985D01*
X141592541Y-88859985D02*
X141592541Y-88752842D01*
X141592541Y-88752842D02*
X141628255Y-88609985D01*
X141628255Y-88609985D02*
X141663969Y-88538557D01*
X141663969Y-88538557D02*
X141735398Y-88467128D01*
X141735398Y-88467128D02*
X141842541Y-88431414D01*
X141842541Y-88431414D02*
X141913969Y-88431414D01*
X141913969Y-88431414D02*
X142021112Y-88467128D01*
X142021112Y-88467128D02*
X142056826Y-88502842D01*
X142699684Y-88431414D02*
X142556826Y-88431414D01*
X142556826Y-88431414D02*
X142485398Y-88467128D01*
X142485398Y-88467128D02*
X142449684Y-88502842D01*
X142449684Y-88502842D02*
X142378255Y-88609985D01*
X142378255Y-88609985D02*
X142342541Y-88752842D01*
X142342541Y-88752842D02*
X142342541Y-89038557D01*
X142342541Y-89038557D02*
X142378255Y-89109985D01*
X142378255Y-89109985D02*
X142413969Y-89145700D01*
X142413969Y-89145700D02*
X142485398Y-89181414D01*
X142485398Y-89181414D02*
X142628255Y-89181414D01*
X142628255Y-89181414D02*
X142699684Y-89145700D01*
X142699684Y-89145700D02*
X142735398Y-89109985D01*
X142735398Y-89109985D02*
X142771112Y-89038557D01*
X142771112Y-89038557D02*
X142771112Y-88859985D01*
X142771112Y-88859985D02*
X142735398Y-88788557D01*
X142735398Y-88788557D02*
X142699684Y-88752842D01*
X142699684Y-88752842D02*
X142628255Y-88717128D01*
X142628255Y-88717128D02*
X142485398Y-88717128D01*
X142485398Y-88717128D02*
X142413969Y-88752842D01*
X142413969Y-88752842D02*
X142378255Y-88788557D01*
X142378255Y-88788557D02*
X142342541Y-88859985D01*
X140151826Y-86260414D02*
X139901826Y-85903271D01*
X139723255Y-86260414D02*
X139723255Y-85510414D01*
X139723255Y-85510414D02*
X140008969Y-85510414D01*
X140008969Y-85510414D02*
X140080398Y-85546128D01*
X140080398Y-85546128D02*
X140116112Y-85581842D01*
X140116112Y-85581842D02*
X140151826Y-85653271D01*
X140151826Y-85653271D02*
X140151826Y-85760414D01*
X140151826Y-85760414D02*
X140116112Y-85831842D01*
X140116112Y-85831842D02*
X140080398Y-85867557D01*
X140080398Y-85867557D02*
X140008969Y-85903271D01*
X140008969Y-85903271D02*
X139723255Y-85903271D01*
X140437541Y-85581842D02*
X140473255Y-85546128D01*
X140473255Y-85546128D02*
X140544684Y-85510414D01*
X140544684Y-85510414D02*
X140723255Y-85510414D01*
X140723255Y-85510414D02*
X140794684Y-85546128D01*
X140794684Y-85546128D02*
X140830398Y-85581842D01*
X140830398Y-85581842D02*
X140866112Y-85653271D01*
X140866112Y-85653271D02*
X140866112Y-85724700D01*
X140866112Y-85724700D02*
X140830398Y-85831842D01*
X140830398Y-85831842D02*
X140401826Y-86260414D01*
X140401826Y-86260414D02*
X140866112Y-86260414D01*
X147093414Y-87051173D02*
X146736271Y-87301173D01*
X147093414Y-87479744D02*
X146343414Y-87479744D01*
X146343414Y-87479744D02*
X146343414Y-87194030D01*
X146343414Y-87194030D02*
X146379128Y-87122601D01*
X146379128Y-87122601D02*
X146414842Y-87086887D01*
X146414842Y-87086887D02*
X146486271Y-87051173D01*
X146486271Y-87051173D02*
X146593414Y-87051173D01*
X146593414Y-87051173D02*
X146664842Y-87086887D01*
X146664842Y-87086887D02*
X146700557Y-87122601D01*
X146700557Y-87122601D02*
X146736271Y-87194030D01*
X146736271Y-87194030D02*
X146736271Y-87479744D01*
X146343414Y-86801173D02*
X146343414Y-86336887D01*
X146343414Y-86336887D02*
X146629128Y-86586887D01*
X146629128Y-86586887D02*
X146629128Y-86479744D01*
X146629128Y-86479744D02*
X146664842Y-86408316D01*
X146664842Y-86408316D02*
X146700557Y-86372601D01*
X146700557Y-86372601D02*
X146771985Y-86336887D01*
X146771985Y-86336887D02*
X146950557Y-86336887D01*
X146950557Y-86336887D02*
X147021985Y-86372601D01*
X147021985Y-86372601D02*
X147057700Y-86408316D01*
X147057700Y-86408316D02*
X147093414Y-86479744D01*
X147093414Y-86479744D02*
X147093414Y-86694030D01*
X147093414Y-86694030D02*
X147057700Y-86765458D01*
X147057700Y-86765458D02*
X147021985Y-86801173D01*
D13*
X131284162Y-95715907D02*
X131320932Y-95752676D01*
X131320932Y-95752676D02*
X131357701Y-95862985D01*
X131357701Y-95862985D02*
X131357701Y-95936524D01*
X131357701Y-95936524D02*
X131320932Y-96046832D01*
X131320932Y-96046832D02*
X131247392Y-96120371D01*
X131247392Y-96120371D02*
X131173853Y-96157141D01*
X131173853Y-96157141D02*
X131026775Y-96193910D01*
X131026775Y-96193910D02*
X130916467Y-96193910D01*
X130916467Y-96193910D02*
X130769389Y-96157141D01*
X130769389Y-96157141D02*
X130695850Y-96120371D01*
X130695850Y-96120371D02*
X130622311Y-96046832D01*
X130622311Y-96046832D02*
X130585541Y-95936524D01*
X130585541Y-95936524D02*
X130585541Y-95862985D01*
X130585541Y-95862985D02*
X130622311Y-95752676D01*
X130622311Y-95752676D02*
X130659080Y-95715907D01*
X130585541Y-95458520D02*
X130585541Y-94943747D01*
X130585541Y-94943747D02*
X131357701Y-95274672D01*
D12*
X175282690Y-93145396D02*
X176092213Y-93145396D01*
X176092213Y-93145396D02*
X176187451Y-93097777D01*
X176187451Y-93097777D02*
X176235071Y-93050158D01*
X176235071Y-93050158D02*
X176282690Y-92954920D01*
X176282690Y-92954920D02*
X176282690Y-92764444D01*
X176282690Y-92764444D02*
X176235071Y-92669206D01*
X176235071Y-92669206D02*
X176187451Y-92621587D01*
X176187451Y-92621587D02*
X176092213Y-92573968D01*
X176092213Y-92573968D02*
X175282690Y-92573968D01*
X176282690Y-91573968D02*
X176282690Y-92145396D01*
X176282690Y-91859682D02*
X175282690Y-91859682D01*
X175282690Y-91859682D02*
X175425547Y-91954920D01*
X175425547Y-91954920D02*
X175520785Y-92050158D01*
X175520785Y-92050158D02*
X175568404Y-92145396D01*
X125539571Y-102205164D02*
X125539571Y-102812307D01*
X125539571Y-102812307D02*
X125575285Y-102883735D01*
X125575285Y-102883735D02*
X125611000Y-102919450D01*
X125611000Y-102919450D02*
X125682428Y-102955164D01*
X125682428Y-102955164D02*
X125825285Y-102955164D01*
X125825285Y-102955164D02*
X125896714Y-102919450D01*
X125896714Y-102919450D02*
X125932428Y-102883735D01*
X125932428Y-102883735D02*
X125968142Y-102812307D01*
X125968142Y-102812307D02*
X125968142Y-102205164D01*
X126253856Y-102205164D02*
X126718142Y-102205164D01*
X126718142Y-102205164D02*
X126468142Y-102490878D01*
X126468142Y-102490878D02*
X126575285Y-102490878D01*
X126575285Y-102490878D02*
X126646714Y-102526592D01*
X126646714Y-102526592D02*
X126682428Y-102562307D01*
X126682428Y-102562307D02*
X126718142Y-102633735D01*
X126718142Y-102633735D02*
X126718142Y-102812307D01*
X126718142Y-102812307D02*
X126682428Y-102883735D01*
X126682428Y-102883735D02*
X126646714Y-102919450D01*
X126646714Y-102919450D02*
X126575285Y-102955164D01*
X126575285Y-102955164D02*
X126360999Y-102955164D01*
X126360999Y-102955164D02*
X126289571Y-102919450D01*
X126289571Y-102919450D02*
X126253856Y-102883735D01*
X125920571Y-95093164D02*
X125920571Y-95700307D01*
X125920571Y-95700307D02*
X125956285Y-95771735D01*
X125956285Y-95771735D02*
X125992000Y-95807450D01*
X125992000Y-95807450D02*
X126063428Y-95843164D01*
X126063428Y-95843164D02*
X126206285Y-95843164D01*
X126206285Y-95843164D02*
X126277714Y-95807450D01*
X126277714Y-95807450D02*
X126313428Y-95771735D01*
X126313428Y-95771735D02*
X126349142Y-95700307D01*
X126349142Y-95700307D02*
X126349142Y-95093164D01*
X127027714Y-95343164D02*
X127027714Y-95843164D01*
X126849142Y-95057450D02*
X126670571Y-95593164D01*
X126670571Y-95593164D02*
X127134856Y-95593164D01*
X134447428Y-86318164D02*
X134447428Y-85568164D01*
X134447428Y-85568164D02*
X134625999Y-85568164D01*
X134625999Y-85568164D02*
X134733142Y-85603878D01*
X134733142Y-85603878D02*
X134804571Y-85675307D01*
X134804571Y-85675307D02*
X134840285Y-85746735D01*
X134840285Y-85746735D02*
X134875999Y-85889592D01*
X134875999Y-85889592D02*
X134875999Y-85996735D01*
X134875999Y-85996735D02*
X134840285Y-86139592D01*
X134840285Y-86139592D02*
X134804571Y-86211021D01*
X134804571Y-86211021D02*
X134733142Y-86282450D01*
X134733142Y-86282450D02*
X134625999Y-86318164D01*
X134625999Y-86318164D02*
X134447428Y-86318164D01*
X135518857Y-85818164D02*
X135518857Y-86318164D01*
X135340285Y-85532450D02*
X135161714Y-86068164D01*
X135161714Y-86068164D02*
X135625999Y-86068164D01*
X132543985Y-93528173D02*
X132579700Y-93563887D01*
X132579700Y-93563887D02*
X132615414Y-93671030D01*
X132615414Y-93671030D02*
X132615414Y-93742458D01*
X132615414Y-93742458D02*
X132579700Y-93849601D01*
X132579700Y-93849601D02*
X132508271Y-93921030D01*
X132508271Y-93921030D02*
X132436842Y-93956744D01*
X132436842Y-93956744D02*
X132293985Y-93992458D01*
X132293985Y-93992458D02*
X132186842Y-93992458D01*
X132186842Y-93992458D02*
X132043985Y-93956744D01*
X132043985Y-93956744D02*
X131972557Y-93921030D01*
X131972557Y-93921030D02*
X131901128Y-93849601D01*
X131901128Y-93849601D02*
X131865414Y-93742458D01*
X131865414Y-93742458D02*
X131865414Y-93671030D01*
X131865414Y-93671030D02*
X131901128Y-93563887D01*
X131901128Y-93563887D02*
X131936842Y-93528173D01*
X132615414Y-93171030D02*
X132615414Y-93028173D01*
X132615414Y-93028173D02*
X132579700Y-92956744D01*
X132579700Y-92956744D02*
X132543985Y-92921030D01*
X132543985Y-92921030D02*
X132436842Y-92849601D01*
X132436842Y-92849601D02*
X132293985Y-92813887D01*
X132293985Y-92813887D02*
X132008271Y-92813887D01*
X132008271Y-92813887D02*
X131936842Y-92849601D01*
X131936842Y-92849601D02*
X131901128Y-92885316D01*
X131901128Y-92885316D02*
X131865414Y-92956744D01*
X131865414Y-92956744D02*
X131865414Y-93099601D01*
X131865414Y-93099601D02*
X131901128Y-93171030D01*
X131901128Y-93171030D02*
X131936842Y-93206744D01*
X131936842Y-93206744D02*
X132008271Y-93242458D01*
X132008271Y-93242458D02*
X132186842Y-93242458D01*
X132186842Y-93242458D02*
X132258271Y-93206744D01*
X132258271Y-93206744D02*
X132293985Y-93171030D01*
X132293985Y-93171030D02*
X132329700Y-93099601D01*
X132329700Y-93099601D02*
X132329700Y-92956744D01*
X132329700Y-92956744D02*
X132293985Y-92885316D01*
X132293985Y-92885316D02*
X132258271Y-92849601D01*
X132258271Y-92849601D02*
X132186842Y-92813887D01*
X123402164Y-91358571D02*
X122652164Y-91358571D01*
X122652164Y-91358571D02*
X122652164Y-91180000D01*
X122652164Y-91180000D02*
X122687878Y-91072857D01*
X122687878Y-91072857D02*
X122759307Y-91001428D01*
X122759307Y-91001428D02*
X122830735Y-90965714D01*
X122830735Y-90965714D02*
X122973592Y-90930000D01*
X122973592Y-90930000D02*
X123080735Y-90930000D01*
X123080735Y-90930000D02*
X123223592Y-90965714D01*
X123223592Y-90965714D02*
X123295021Y-91001428D01*
X123295021Y-91001428D02*
X123366450Y-91072857D01*
X123366450Y-91072857D02*
X123402164Y-91180000D01*
X123402164Y-91180000D02*
X123402164Y-91358571D01*
X122723592Y-90644285D02*
X122687878Y-90608571D01*
X122687878Y-90608571D02*
X122652164Y-90537143D01*
X122652164Y-90537143D02*
X122652164Y-90358571D01*
X122652164Y-90358571D02*
X122687878Y-90287143D01*
X122687878Y-90287143D02*
X122723592Y-90251428D01*
X122723592Y-90251428D02*
X122795021Y-90215714D01*
X122795021Y-90215714D02*
X122866450Y-90215714D01*
X122866450Y-90215714D02*
X122973592Y-90251428D01*
X122973592Y-90251428D02*
X123402164Y-90680000D01*
X123402164Y-90680000D02*
X123402164Y-90215714D01*
X124541428Y-85556164D02*
X124541428Y-84806164D01*
X124541428Y-84806164D02*
X124719999Y-84806164D01*
X124719999Y-84806164D02*
X124827142Y-84841878D01*
X124827142Y-84841878D02*
X124898571Y-84913307D01*
X124898571Y-84913307D02*
X124934285Y-84984735D01*
X124934285Y-84984735D02*
X124969999Y-85127592D01*
X124969999Y-85127592D02*
X124969999Y-85234735D01*
X124969999Y-85234735D02*
X124934285Y-85377592D01*
X124934285Y-85377592D02*
X124898571Y-85449021D01*
X124898571Y-85449021D02*
X124827142Y-85520450D01*
X124827142Y-85520450D02*
X124719999Y-85556164D01*
X124719999Y-85556164D02*
X124541428Y-85556164D01*
X125219999Y-84806164D02*
X125684285Y-84806164D01*
X125684285Y-84806164D02*
X125434285Y-85091878D01*
X125434285Y-85091878D02*
X125541428Y-85091878D01*
X125541428Y-85091878D02*
X125612857Y-85127592D01*
X125612857Y-85127592D02*
X125648571Y-85163307D01*
X125648571Y-85163307D02*
X125684285Y-85234735D01*
X125684285Y-85234735D02*
X125684285Y-85413307D01*
X125684285Y-85413307D02*
X125648571Y-85484735D01*
X125648571Y-85484735D02*
X125612857Y-85520450D01*
X125612857Y-85520450D02*
X125541428Y-85556164D01*
X125541428Y-85556164D02*
X125327142Y-85556164D01*
X125327142Y-85556164D02*
X125255714Y-85520450D01*
X125255714Y-85520450D02*
X125219999Y-85484735D01*
X123767571Y-87346164D02*
X124196143Y-87346164D01*
X123981857Y-88096164D02*
X123981857Y-87346164D01*
X124874714Y-88096164D02*
X124624714Y-87739021D01*
X124446143Y-88096164D02*
X124446143Y-87346164D01*
X124446143Y-87346164D02*
X124731857Y-87346164D01*
X124731857Y-87346164D02*
X124803286Y-87381878D01*
X124803286Y-87381878D02*
X124839000Y-87417592D01*
X124839000Y-87417592D02*
X124874714Y-87489021D01*
X124874714Y-87489021D02*
X124874714Y-87596164D01*
X124874714Y-87596164D02*
X124839000Y-87667592D01*
X124839000Y-87667592D02*
X124803286Y-87703307D01*
X124803286Y-87703307D02*
X124731857Y-87739021D01*
X124731857Y-87739021D02*
X124446143Y-87739021D01*
X125160429Y-87417592D02*
X125196143Y-87381878D01*
X125196143Y-87381878D02*
X125267572Y-87346164D01*
X125267572Y-87346164D02*
X125446143Y-87346164D01*
X125446143Y-87346164D02*
X125517572Y-87381878D01*
X125517572Y-87381878D02*
X125553286Y-87417592D01*
X125553286Y-87417592D02*
X125589000Y-87489021D01*
X125589000Y-87489021D02*
X125589000Y-87560450D01*
X125589000Y-87560450D02*
X125553286Y-87667592D01*
X125553286Y-87667592D02*
X125124714Y-88096164D01*
X125124714Y-88096164D02*
X125589000Y-88096164D01*
X122228571Y-92789164D02*
X122228571Y-93396307D01*
X122228571Y-93396307D02*
X122264285Y-93467735D01*
X122264285Y-93467735D02*
X122300000Y-93503450D01*
X122300000Y-93503450D02*
X122371428Y-93539164D01*
X122371428Y-93539164D02*
X122514285Y-93539164D01*
X122514285Y-93539164D02*
X122585714Y-93503450D01*
X122585714Y-93503450D02*
X122621428Y-93467735D01*
X122621428Y-93467735D02*
X122657142Y-93396307D01*
X122657142Y-93396307D02*
X122657142Y-92789164D01*
X123335714Y-92789164D02*
X123192856Y-92789164D01*
X123192856Y-92789164D02*
X123121428Y-92824878D01*
X123121428Y-92824878D02*
X123085714Y-92860592D01*
X123085714Y-92860592D02*
X123014285Y-92967735D01*
X123014285Y-92967735D02*
X122978571Y-93110592D01*
X122978571Y-93110592D02*
X122978571Y-93396307D01*
X122978571Y-93396307D02*
X123014285Y-93467735D01*
X123014285Y-93467735D02*
X123049999Y-93503450D01*
X123049999Y-93503450D02*
X123121428Y-93539164D01*
X123121428Y-93539164D02*
X123264285Y-93539164D01*
X123264285Y-93539164D02*
X123335714Y-93503450D01*
X123335714Y-93503450D02*
X123371428Y-93467735D01*
X123371428Y-93467735D02*
X123407142Y-93396307D01*
X123407142Y-93396307D02*
X123407142Y-93217735D01*
X123407142Y-93217735D02*
X123371428Y-93146307D01*
X123371428Y-93146307D02*
X123335714Y-93110592D01*
X123335714Y-93110592D02*
X123264285Y-93074878D01*
X123264285Y-93074878D02*
X123121428Y-93074878D01*
X123121428Y-93074878D02*
X123049999Y-93110592D01*
X123049999Y-93110592D02*
X123014285Y-93146307D01*
X123014285Y-93146307D02*
X122978571Y-93217735D01*
D13*
X131550229Y-104687701D02*
X131550229Y-103915541D01*
X131550229Y-103915541D02*
X131844385Y-103915541D01*
X131844385Y-103915541D02*
X131917924Y-103952311D01*
X131917924Y-103952311D02*
X131954694Y-103989080D01*
X131954694Y-103989080D02*
X131991463Y-104062619D01*
X131991463Y-104062619D02*
X131991463Y-104172928D01*
X131991463Y-104172928D02*
X131954694Y-104246467D01*
X131954694Y-104246467D02*
X131917924Y-104283236D01*
X131917924Y-104283236D02*
X131844385Y-104320006D01*
X131844385Y-104320006D02*
X131550229Y-104320006D01*
X132248850Y-103915541D02*
X132432698Y-104687701D01*
X132432698Y-104687701D02*
X132579776Y-104136158D01*
X132579776Y-104136158D02*
X132726854Y-104687701D01*
X132726854Y-104687701D02*
X132910702Y-103915541D01*
X133646092Y-104687701D02*
X133388706Y-104320006D01*
X133204858Y-104687701D02*
X133204858Y-103915541D01*
X133204858Y-103915541D02*
X133499014Y-103915541D01*
X133499014Y-103915541D02*
X133572553Y-103952311D01*
X133572553Y-103952311D02*
X133609323Y-103989080D01*
X133609323Y-103989080D02*
X133646092Y-104062619D01*
X133646092Y-104062619D02*
X133646092Y-104172928D01*
X133646092Y-104172928D02*
X133609323Y-104246467D01*
X133609323Y-104246467D02*
X133572553Y-104283236D01*
X133572553Y-104283236D02*
X133499014Y-104320006D01*
X133499014Y-104320006D02*
X133204858Y-104320006D01*
X134381483Y-104687701D02*
X133940249Y-104687701D01*
X134160866Y-104687701D02*
X134160866Y-103915541D01*
X134160866Y-103915541D02*
X134087327Y-104025850D01*
X134087327Y-104025850D02*
X134013788Y-104099389D01*
X134013788Y-104099389D02*
X133940249Y-104136158D01*
X151211520Y-94185735D02*
X151174751Y-94222505D01*
X151174751Y-94222505D02*
X151064442Y-94259274D01*
X151064442Y-94259274D02*
X150990903Y-94259274D01*
X150990903Y-94259274D02*
X150880595Y-94222505D01*
X150880595Y-94222505D02*
X150807056Y-94148965D01*
X150807056Y-94148965D02*
X150770286Y-94075426D01*
X150770286Y-94075426D02*
X150733517Y-93928348D01*
X150733517Y-93928348D02*
X150733517Y-93818040D01*
X150733517Y-93818040D02*
X150770286Y-93670962D01*
X150770286Y-93670962D02*
X150807056Y-93597423D01*
X150807056Y-93597423D02*
X150880595Y-93523884D01*
X150880595Y-93523884D02*
X150990903Y-93487114D01*
X150990903Y-93487114D02*
X151064442Y-93487114D01*
X151064442Y-93487114D02*
X151174751Y-93523884D01*
X151174751Y-93523884D02*
X151211520Y-93560653D01*
X151505677Y-93560653D02*
X151542446Y-93523884D01*
X151542446Y-93523884D02*
X151615985Y-93487114D01*
X151615985Y-93487114D02*
X151799833Y-93487114D01*
X151799833Y-93487114D02*
X151873372Y-93523884D01*
X151873372Y-93523884D02*
X151910141Y-93560653D01*
X151910141Y-93560653D02*
X151946911Y-93634192D01*
X151946911Y-93634192D02*
X151946911Y-93707731D01*
X151946911Y-93707731D02*
X151910141Y-93818040D01*
X151910141Y-93818040D02*
X151468907Y-94259274D01*
X151468907Y-94259274D02*
X151946911Y-94259274D01*
D12*
X184959666Y-105162819D02*
X184959666Y-105877104D01*
X184959666Y-105877104D02*
X184912047Y-106019961D01*
X184912047Y-106019961D02*
X184816809Y-106115200D01*
X184816809Y-106115200D02*
X184673952Y-106162819D01*
X184673952Y-106162819D02*
X184578714Y-106162819D01*
X185959666Y-106162819D02*
X185388238Y-106162819D01*
X185673952Y-106162819D02*
X185673952Y-105162819D01*
X185673952Y-105162819D02*
X185578714Y-105305676D01*
X185578714Y-105305676D02*
X185483476Y-105400914D01*
X185483476Y-105400914D02*
X185388238Y-105448533D01*
X151429819Y-105489333D02*
X152144104Y-105489333D01*
X152144104Y-105489333D02*
X152286961Y-105536952D01*
X152286961Y-105536952D02*
X152382200Y-105632190D01*
X152382200Y-105632190D02*
X152429819Y-105775047D01*
X152429819Y-105775047D02*
X152429819Y-105870285D01*
X151525057Y-105060761D02*
X151477438Y-105013142D01*
X151477438Y-105013142D02*
X151429819Y-104917904D01*
X151429819Y-104917904D02*
X151429819Y-104679809D01*
X151429819Y-104679809D02*
X151477438Y-104584571D01*
X151477438Y-104584571D02*
X151525057Y-104536952D01*
X151525057Y-104536952D02*
X151620295Y-104489333D01*
X151620295Y-104489333D02*
X151715533Y-104489333D01*
X151715533Y-104489333D02*
X151858390Y-104536952D01*
X151858390Y-104536952D02*
X152429819Y-105108380D01*
X152429819Y-105108380D02*
X152429819Y-104489333D01*
X180336819Y-92582904D02*
X181146342Y-92582904D01*
X181146342Y-92582904D02*
X181241580Y-92535285D01*
X181241580Y-92535285D02*
X181289200Y-92487666D01*
X181289200Y-92487666D02*
X181336819Y-92392428D01*
X181336819Y-92392428D02*
X181336819Y-92201952D01*
X181336819Y-92201952D02*
X181289200Y-92106714D01*
X181289200Y-92106714D02*
X181241580Y-92059095D01*
X181241580Y-92059095D02*
X181146342Y-92011476D01*
X181146342Y-92011476D02*
X180336819Y-92011476D01*
X180336819Y-91059095D02*
X180336819Y-91535285D01*
X180336819Y-91535285D02*
X180813009Y-91582904D01*
X180813009Y-91582904D02*
X180765390Y-91535285D01*
X180765390Y-91535285D02*
X180717771Y-91440047D01*
X180717771Y-91440047D02*
X180717771Y-91201952D01*
X180717771Y-91201952D02*
X180765390Y-91106714D01*
X180765390Y-91106714D02*
X180813009Y-91059095D01*
X180813009Y-91059095D02*
X180908247Y-91011476D01*
X180908247Y-91011476D02*
X181146342Y-91011476D01*
X181146342Y-91011476D02*
X181241580Y-91059095D01*
X181241580Y-91059095D02*
X181289200Y-91106714D01*
X181289200Y-91106714D02*
X181336819Y-91201952D01*
X181336819Y-91201952D02*
X181336819Y-91440047D01*
X181336819Y-91440047D02*
X181289200Y-91535285D01*
X181289200Y-91535285D02*
X181241580Y-91582904D01*
X182649819Y-75517333D02*
X183364104Y-75517333D01*
X183364104Y-75517333D02*
X183506961Y-75564952D01*
X183506961Y-75564952D02*
X183602200Y-75660190D01*
X183602200Y-75660190D02*
X183649819Y-75803047D01*
X183649819Y-75803047D02*
X183649819Y-75898285D01*
X182649819Y-75136380D02*
X182649819Y-74517333D01*
X182649819Y-74517333D02*
X183030771Y-74850666D01*
X183030771Y-74850666D02*
X183030771Y-74707809D01*
X183030771Y-74707809D02*
X183078390Y-74612571D01*
X183078390Y-74612571D02*
X183126009Y-74564952D01*
X183126009Y-74564952D02*
X183221247Y-74517333D01*
X183221247Y-74517333D02*
X183459342Y-74517333D01*
X183459342Y-74517333D02*
X183554580Y-74564952D01*
X183554580Y-74564952D02*
X183602200Y-74612571D01*
X183602200Y-74612571D02*
X183649819Y-74707809D01*
X183649819Y-74707809D02*
X183649819Y-74993523D01*
X183649819Y-74993523D02*
X183602200Y-75088761D01*
X183602200Y-75088761D02*
X183554580Y-75136380D01*
D14*
X132708000Y-100600000D02*
X131692000Y-100600000D01*
X126365000Y-99800000D02*
X125349000Y-99800000D01*
D15*
X140345000Y-105635000D02*
X140345000Y-106535000D01*
X140345000Y-106535000D02*
X147945000Y-106535000D01*
X141645000Y-101135000D02*
X142445000Y-101135000D01*
X145845000Y-101135000D02*
X146645000Y-101135000D01*
X147945000Y-106535000D02*
X147945000Y-105635000D01*
D16*
X146363000Y-97274600D02*
X150563000Y-97274600D01*
X150563000Y-100325400D02*
X146363000Y-100325400D01*
D15*
X139681000Y-94027000D02*
X139681000Y-94627000D01*
X139681000Y-99427000D02*
X139681000Y-98827000D01*
X140281000Y-94027000D02*
X139681000Y-94027000D01*
X140281000Y-99427000D02*
X139681000Y-99427000D01*
X145081000Y-94027000D02*
X144481000Y-94027000D01*
X145081000Y-94627000D02*
X145081000Y-94027000D01*
X145081000Y-98827000D02*
X145081000Y-99427000D01*
X145081000Y-99427000D02*
X144481000Y-99427000D01*
D17*
G36*
X145081000Y-94527000D02*
G01*
X144581000Y-94527000D01*
X144581000Y-94027000D01*
X145081000Y-94027000D01*
X145081000Y-94527000D01*
G37*
D14*
X149225000Y-96247000D02*
X149225000Y-97047000D01*
D17*
G36*
X137414700Y-101473000D02*
G01*
X137097200Y-101727000D01*
X137097200Y-101219000D01*
X137414700Y-101473000D01*
G37*
G36*
X137541700Y-101854000D02*
G01*
X137414700Y-101854000D01*
X137414700Y-101092000D01*
X137541700Y-101092000D01*
X137541700Y-101854000D01*
G37*
D14*
X137287000Y-99295000D02*
X137287000Y-100095000D01*
X133331000Y-101092000D02*
X134131000Y-101092000D01*
D18*
X135625000Y-93177000D02*
X137425000Y-93177000D01*
X137425000Y-89957000D02*
X134975000Y-89957000D01*
X132450000Y-92750000D02*
X132450000Y-88850000D01*
X132450000Y-92750000D02*
X134450000Y-92750000D01*
X134450000Y-92750000D02*
X134450000Y-88850000D01*
D12*
X135350000Y-86700000D02*
X138550000Y-86700000D01*
X135350000Y-88500000D02*
X135350000Y-87500000D01*
X138550000Y-87600000D02*
X138550000Y-88400000D01*
X138550000Y-89300000D02*
X135350000Y-89300000D01*
X137150000Y-89700000D02*
G75*
G02*
X136750000Y-89700000I-200000J0D01*
G01*
X136750000Y-89700000D02*
G75*
G02*
X137150000Y-89700000I200000J0D01*
G01*
D18*
X147377000Y-87775748D02*
X147377000Y-84944252D01*
X152597000Y-87775748D02*
X152597000Y-84944252D01*
D14*
X140481000Y-89154000D02*
X139681000Y-89154000D01*
X142621000Y-88157000D02*
X142621000Y-87357000D01*
X142550000Y-86506000D02*
X142550000Y-85706000D01*
X145142000Y-87630000D02*
X145942000Y-87630000D01*
X132708000Y-96400000D02*
X131692000Y-96400000D01*
D12*
X159152871Y-88508492D02*
X159152871Y-96258492D01*
X159152871Y-88508492D02*
X159517871Y-88508492D01*
X159152871Y-96258492D02*
X159517871Y-96258492D01*
X174627871Y-88508492D02*
X174627871Y-86683492D01*
X174902871Y-88508492D02*
X174627871Y-88508492D01*
X174902871Y-88508492D02*
X174902871Y-96258492D01*
X174902871Y-96258492D02*
X174537871Y-96258492D01*
D18*
X127850000Y-102860000D02*
X129650000Y-102860000D01*
X129650000Y-99640000D02*
X127200000Y-99640000D01*
X127700000Y-99210000D02*
X129500000Y-99210000D01*
X129500000Y-95990000D02*
X127050000Y-95990000D01*
X131940000Y-84420000D02*
X131940000Y-85350000D01*
X131940000Y-84420000D02*
X133400000Y-84420000D01*
X131940000Y-87580000D02*
X131940000Y-86650000D01*
X131940000Y-87580000D02*
X134100000Y-87580000D01*
D14*
X130410000Y-92202000D02*
X131210000Y-92202000D01*
D18*
X123800000Y-93390000D02*
X123800000Y-89490000D01*
X123800000Y-93390000D02*
X125800000Y-93390000D01*
X125800000Y-93390000D02*
X125800000Y-89490000D01*
X126020000Y-84780000D02*
X126020000Y-86940000D01*
X126020000Y-84780000D02*
X126950000Y-84780000D01*
X129180000Y-84780000D02*
X128250000Y-84780000D01*
X129180000Y-84780000D02*
X129180000Y-86240000D01*
D12*
X126400000Y-87840000D02*
X129600000Y-87840000D01*
X126400000Y-89640000D02*
X126400000Y-88640000D01*
X129600000Y-88740000D02*
X129600000Y-89540000D01*
X129600000Y-90440000D02*
X126400000Y-90440000D01*
X128200000Y-90840000D02*
G75*
G02*
X127800000Y-90840000I-200000J0D01*
G01*
X127800000Y-90840000D02*
G75*
G02*
X128200000Y-90840000I200000J0D01*
G01*
D18*
X126900000Y-94350000D02*
X128700000Y-94350000D01*
X128700000Y-91130000D02*
X126250000Y-91130000D01*
D17*
G36*
X133146800Y-103505000D02*
G01*
X132829300Y-103251000D01*
X133146800Y-102997000D01*
X133146800Y-103505000D01*
G37*
G36*
X132829300Y-103632000D02*
G01*
X132702300Y-103632000D01*
X132702300Y-102870000D01*
X132829300Y-102870000D01*
X132829300Y-103632000D01*
G37*
D14*
X149479000Y-94850000D02*
X149479000Y-95650000D01*
D18*
X184183000Y-103253000D02*
X184183000Y-79188000D01*
X184729529Y-103253000D02*
X184183000Y-103253000D01*
X184985470Y-79188000D02*
X184183000Y-79188000D01*
X186403000Y-79188000D02*
X185600530Y-79188000D01*
X186403000Y-103253000D02*
X185856471Y-103253000D01*
X186403000Y-103253000D02*
X186403000Y-79188000D01*
X186403000Y-104013000D02*
X186403000Y-104773000D01*
X186403000Y-104773000D02*
X185293000Y-104773000D01*
X152910000Y-106266000D02*
X152910000Y-105156000D01*
X153670000Y-106266000D02*
X152910000Y-106266000D01*
X154430000Y-104046000D02*
X178495000Y-104046000D01*
X154430000Y-104592529D02*
X154430000Y-104046000D01*
X154430000Y-106266000D02*
X154430000Y-105719471D01*
X154430000Y-106266000D02*
X178495000Y-106266000D01*
X178495000Y-104848470D02*
X178495000Y-104046000D01*
X178495000Y-106266000D02*
X178495000Y-105463530D01*
D12*
X157132000Y-84821000D02*
X157132000Y-98821000D01*
X157132000Y-98821000D02*
X177132000Y-98821000D01*
X176132000Y-84821000D02*
X157132000Y-84821000D01*
X177132000Y-84671000D02*
X177132000Y-82071000D01*
X177132000Y-85821000D02*
X176132000Y-84821000D01*
X177132000Y-98821000D02*
X177132000Y-85821000D01*
X177134547Y-84041000D02*
X178272000Y-84041000D01*
X177282000Y-84671000D02*
X177132000Y-84671000D01*
D18*
X151595000Y-74074000D02*
X151595000Y-74876470D01*
X151595000Y-75491530D02*
X151595000Y-76294000D01*
X180740000Y-74074000D02*
X151595000Y-74074000D01*
X180740000Y-74074000D02*
X180740000Y-74620529D01*
X180740000Y-75747471D02*
X180740000Y-76294000D01*
X180740000Y-76294000D02*
X151595000Y-76294000D01*
X181500000Y-74074000D02*
X182260000Y-74074000D01*
X182260000Y-74074000D02*
X182260000Y-75184000D01*
X149671000Y-93472000D02*
G75*
G02*
X148271000Y-93472000I-700000J0D01*
G01*
X148271000Y-93472000D02*
G75*
G02*
X149671000Y-93472000I700000J0D01*
G01*
X147258000Y-93472000D02*
G75*
G02*
X145858000Y-93472000I-700000J0D01*
G01*
X145858000Y-93472000D02*
G75*
G02*
X147258000Y-93472000I700000J0D01*
G01*
X152973000Y-99822000D02*
G75*
G02*
X151573000Y-99822000I-700000J0D01*
G01*
X151573000Y-99822000D02*
G75*
G02*
X152973000Y-99822000I700000J0D01*
G01*
X136844000Y-97155000D02*
G75*
G02*
X135444000Y-97155000I-700000J0D01*
G01*
X135444000Y-97155000D02*
G75*
G02*
X136844000Y-97155000I700000J0D01*
G01*
M02*
