G04 #@! TF.GenerationSoftware,KiCad,Pcbnew,9.0.1*
G04 #@! TF.CreationDate,2025-08-14T12:18:44-07:00*
G04 #@! TF.ProjectId,EL_PSU,454c5f50-5355-42e6-9b69-6361645f7063,rev?*
G04 #@! TF.SameCoordinates,Original*
G04 #@! TF.FileFunction,Soldermask,Bot*
G04 #@! TF.FilePolarity,Negative*
%FSLAX46Y46*%
G04 Gerber Fmt 4.6, Leading zero omitted, Abs format (unit mm)*
G04 Created by KiCad (PCBNEW 9.0.1) date 2025-08-14 12:18:44*
%MOMM*%
%LPD*%
G01*
G04 APERTURE LIST*
G04 Aperture macros list*
%AMRoundRect*
0 Rectangle with rounded corners*
0 $1 Rounding radius*
0 $2 $3 $4 $5 $6 $7 $8 $9 X,Y pos of 4 corners*
0 Add a 4 corners polygon primitive as box body*
4,1,4,$2,$3,$4,$5,$6,$7,$8,$9,$2,$3,0*
0 Add four circle primitives for the rounded corners*
1,1,$1+$1,$2,$3*
1,1,$1+$1,$4,$5*
1,1,$1+$1,$6,$7*
1,1,$1+$1,$8,$9*
0 Add four rect primitives between the rounded corners*
20,1,$1+$1,$2,$3,$4,$5,0*
20,1,$1+$1,$4,$5,$6,$7,0*
20,1,$1+$1,$6,$7,$8,$9,0*
20,1,$1+$1,$8,$9,$2,$3,0*%
G04 Aperture macros list end*
%ADD10C,0.400000*%
%ADD11C,1.244600*%
%ADD12RoundRect,0.050800X1.206500X-1.206500X1.206500X1.206500X-1.206500X1.206500X-1.206500X-1.206500X0*%
%ADD13RoundRect,0.200000X0.500000X0.500000X-0.500000X0.500000X-0.500000X-0.500000X0.500000X-0.500000X0*%
%ADD14O,1.400000X1.400000*%
%ADD15RoundRect,0.200000X0.500000X-0.500000X0.500000X0.500000X-0.500000X0.500000X-0.500000X-0.500000X0*%
%ADD16RoundRect,0.200000X-0.500000X0.500000X-0.500000X-0.500000X0.500000X-0.500000X0.500000X0.500000X0*%
G04 APERTURE END LIST*
D10*
X145308609Y-93218000D02*
G75*
G02*
X144505391Y-93218000I-401609J0D01*
G01*
X144505391Y-93218000D02*
G75*
G02*
X145308609Y-93218000I401609J0D01*
G01*
X142509634Y-100457000D02*
G75*
G02*
X141462366Y-100457000I-523634J0D01*
G01*
X141462366Y-100457000D02*
G75*
G02*
X142509634Y-100457000I523634J0D01*
G01*
D11*
X140845000Y-101335000D03*
X147445000Y-101335000D03*
D12*
X140545000Y-104135000D03*
X147745000Y-104135000D03*
D13*
X185293000Y-104013000D03*
D14*
X185293000Y-102743000D03*
X185293000Y-101473000D03*
X185293000Y-100203000D03*
X185293000Y-98933000D03*
X185293000Y-97663000D03*
X185293000Y-96393000D03*
X185293000Y-95123000D03*
X185293000Y-93853000D03*
X185293000Y-92583000D03*
X185293000Y-91313000D03*
X185293000Y-90043000D03*
X185293000Y-88773000D03*
X185293000Y-87503000D03*
X185293000Y-86233000D03*
X185293000Y-84963000D03*
X185293000Y-83693000D03*
X185293000Y-82423000D03*
X185293000Y-81153000D03*
X185293000Y-79883000D03*
D15*
X153670000Y-105156000D03*
D14*
X154940000Y-105156000D03*
X156210000Y-105156000D03*
X157480000Y-105156000D03*
X158750000Y-105156000D03*
X160020000Y-105156000D03*
X161290000Y-105156000D03*
X162560000Y-105156000D03*
X163830000Y-105156000D03*
X165100000Y-105156000D03*
X166370000Y-105156000D03*
X167640000Y-105156000D03*
X168910000Y-105156000D03*
X170180000Y-105156000D03*
X171450000Y-105156000D03*
X172720000Y-105156000D03*
X173990000Y-105156000D03*
X175260000Y-105156000D03*
X176530000Y-105156000D03*
X177800000Y-105156000D03*
D16*
X181500000Y-75184000D03*
D14*
X180230000Y-75184000D03*
X178960000Y-75184000D03*
X177690000Y-75184000D03*
X176420000Y-75184000D03*
X175150000Y-75184000D03*
X173880000Y-75184000D03*
X172610000Y-75184000D03*
X171340000Y-75184000D03*
X170070000Y-75184000D03*
X168800000Y-75184000D03*
X167530000Y-75184000D03*
X166260000Y-75184000D03*
X164990000Y-75184000D03*
X163720000Y-75184000D03*
X162450000Y-75184000D03*
X161180000Y-75184000D03*
X159910000Y-75184000D03*
X158640000Y-75184000D03*
X157370000Y-75184000D03*
X156100000Y-75184000D03*
X154830000Y-75184000D03*
X153560000Y-75184000D03*
X152290000Y-75184000D03*
G36*
X124529121Y-95016002D02*
G01*
X124575614Y-95069658D01*
X124587000Y-95122000D01*
X124587000Y-98172000D01*
X124566998Y-98240121D01*
X124513342Y-98286614D01*
X124461000Y-98298000D01*
X121157000Y-98298000D01*
X121088879Y-98277998D01*
X121042386Y-98224342D01*
X121031000Y-98172000D01*
X121031000Y-95122000D01*
X121051002Y-95053879D01*
X121104658Y-95007386D01*
X121157000Y-94996000D01*
X124461000Y-94996000D01*
X124529121Y-95016002D01*
G37*
G36*
X124529121Y-103017002D02*
G01*
X124575614Y-103070658D01*
X124587000Y-103123000D01*
X124587000Y-105919000D01*
X124566998Y-105987121D01*
X124513342Y-106033614D01*
X124461000Y-106045000D01*
X121030000Y-106045000D01*
X120961879Y-106024998D01*
X120915386Y-105971342D01*
X120904000Y-105919000D01*
X120904000Y-103123000D01*
X120924002Y-103054879D01*
X120977658Y-103008386D01*
X121030000Y-102997000D01*
X124461000Y-102997000D01*
X124529121Y-103017002D01*
G37*
M02*
