G04 #@! TF.GenerationSoftware,KiCad,Pcbnew,9.0.1*
G04 #@! TF.CreationDate,2025-08-14T12:18:44-07:00*
G04 #@! TF.ProjectId,EL_PSU,454c5f50-5355-42e6-9b69-6361645f7063,rev?*
G04 #@! TF.SameCoordinates,Original*
G04 #@! TF.FileFunction,Soldermask,Top*
G04 #@! TF.FilePolarity,Negative*
%FSLAX46Y46*%
G04 Gerber Fmt 4.6, Leading zero omitted, Abs format (unit mm)*
G04 Created by KiCad (PCBNEW 9.0.1) date 2025-08-14 12:18:44*
%MOMM*%
%LPD*%
G01*
G04 APERTURE LIST*
G04 Aperture macros list*
%AMRoundRect*
0 Rectangle with rounded corners*
0 $1 Rounding radius*
0 $2 $3 $4 $5 $6 $7 $8 $9 X,Y pos of 4 corners*
0 Add a 4 corners polygon primitive as box body*
4,1,4,$2,$3,$4,$5,$6,$7,$8,$9,$2,$3,0*
0 Add four circle primitives for the rounded corners*
1,1,$1+$1,$2,$3*
1,1,$1+$1,$4,$5*
1,1,$1+$1,$6,$7*
1,1,$1+$1,$8,$9*
0 Add four rect primitives between the rounded corners*
20,1,$1+$1,$2,$3,$4,$5,0*
20,1,$1+$1,$4,$5,$6,$7,0*
20,1,$1+$1,$6,$7,$8,$9,0*
20,1,$1+$1,$8,$9,$2,$3,0*%
G04 Aperture macros list end*
%ADD10C,0.400000*%
%ADD11C,0.000000*%
%ADD12RoundRect,0.050800X-0.750000X0.620000X-0.750000X-0.620000X0.750000X-0.620000X0.750000X0.620000X0*%
%ADD13RoundRect,0.050800X0.500000X-1.000000X0.500000X1.000000X-0.500000X1.000000X-0.500000X-1.000000X0*%
%ADD14RoundRect,0.050800X-0.200000X-0.675000X0.200000X-0.675000X0.200000X0.675000X-0.200000X0.675000X0*%
%ADD15C,1.244600*%
%ADD16RoundRect,0.050800X1.206500X-1.206500X1.206500X1.206500X-1.206500X1.206500X-1.206500X-1.206500X0*%
%ADD17RoundRect,0.050800X-0.450000X-0.450000X0.450000X-0.450000X0.450000X0.450000X-0.450000X0.450000X0*%
%ADD18RoundRect,0.050800X-0.125000X-0.400000X0.125000X-0.400000X0.125000X0.400000X-0.125000X0.400000X0*%
%ADD19RoundRect,0.050800X0.400000X-0.125000X0.400000X0.125000X-0.400000X0.125000X-0.400000X-0.125000X0*%
%ADD20RoundRect,0.050800X0.125000X0.400000X-0.125000X0.400000X-0.125000X-0.400000X0.125000X-0.400000X0*%
%ADD21RoundRect,0.050800X-0.400000X0.125000X-0.400000X-0.125000X0.400000X-0.125000X0.400000X0.125000X0*%
%ADD22RoundRect,0.180080X-1.620720X1.620720X-1.620720X-1.620720X1.620720X-1.620720X1.620720X1.620720X0*%
%ADD23RoundRect,0.050800X-0.537500X-0.500000X0.537500X-0.500000X0.537500X0.500000X-0.537500X0.500000X0*%
%ADD24RoundRect,0.050800X-0.400000X0.400000X-0.400000X-0.400000X0.400000X-0.400000X0.400000X0.400000X0*%
%ADD25RoundRect,0.050800X0.500000X-0.537500X0.500000X0.537500X-0.500000X0.537500X-0.500000X-0.537500X0*%
%ADD26RoundRect,0.200000X-0.530000X-0.325000X0.530000X-0.325000X0.530000X0.325000X-0.530000X0.325000X0*%
%ADD27RoundRect,0.200000X0.600000X-0.450000X0.600000X0.450000X-0.600000X0.450000X-0.600000X-0.450000X0*%
%ADD28RoundRect,0.200000X-0.500000X-0.275000X0.500000X-0.275000X0.500000X0.275000X-0.500000X0.275000X0*%
%ADD29RoundRect,0.305556X2.594444X-0.794444X2.594444X0.794444X-2.594444X0.794444X-2.594444X-0.794444X0*%
%ADD30RoundRect,0.050800X-0.500000X0.537500X-0.500000X-0.537500X0.500000X-0.537500X0.500000X0.537500X0*%
%ADD31RoundRect,0.050800X0.537500X0.500000X-0.537500X0.500000X-0.537500X-0.500000X0.537500X-0.500000X0*%
%ADD32RoundRect,0.200000X-0.300000X1.000000X-0.300000X-1.000000X0.300000X-1.000000X0.300000X1.000000X0*%
%ADD33RoundRect,0.200000X0.450000X0.400000X-0.450000X0.400000X-0.450000X-0.400000X0.450000X-0.400000X0*%
%ADD34RoundRect,0.200000X0.400000X-0.450000X0.400000X0.450000X-0.400000X0.450000X-0.400000X-0.450000X0*%
%ADD35RoundRect,0.050800X0.400000X-0.400000X0.400000X0.400000X-0.400000X0.400000X-0.400000X-0.400000X0*%
%ADD36RoundRect,0.200000X0.500000X0.500000X-0.500000X0.500000X-0.500000X-0.500000X0.500000X-0.500000X0*%
%ADD37O,1.400000X1.400000*%
%ADD38RoundRect,0.200000X0.500000X-0.500000X0.500000X0.500000X-0.500000X0.500000X-0.500000X-0.500000X0*%
%ADD39RoundRect,0.200000X-0.250000X-1.000000X0.250000X-1.000000X0.250000X1.000000X-0.250000X1.000000X0*%
%ADD40RoundRect,0.200000X-1.000000X0.250000X-1.000000X-0.250000X1.000000X-0.250000X1.000000X0.250000X0*%
%ADD41RoundRect,0.200000X-0.500000X0.500000X-0.500000X-0.500000X0.500000X-0.500000X0.500000X0.500000X0*%
%ADD42C,1.400000*%
G04 APERTURE END LIST*
D10*
X142387609Y-100457000D02*
G75*
G02*
X141584391Y-100457000I-401609J0D01*
G01*
X141584391Y-100457000D02*
G75*
G02*
X142387609Y-100457000I401609J0D01*
G01*
X145308609Y-93218000D02*
G75*
G02*
X144505391Y-93218000I-401609J0D01*
G01*
X144505391Y-93218000D02*
G75*
G02*
X145308609Y-93218000I401609J0D01*
G01*
D11*
G36*
X143095000Y-102185000D02*
G01*
X142595000Y-102185000D01*
X142595000Y-100735000D01*
X143095000Y-100735000D01*
X143095000Y-102185000D01*
G37*
G36*
X143745000Y-102185000D02*
G01*
X143245000Y-102185000D01*
X143245000Y-100735000D01*
X143745000Y-100735000D01*
X143745000Y-102185000D01*
G37*
G36*
X144395000Y-102185000D02*
G01*
X143895000Y-102185000D01*
X143895000Y-100735000D01*
X144395000Y-100735000D01*
X144395000Y-102185000D01*
G37*
G36*
X145045000Y-102185000D02*
G01*
X144545000Y-102185000D01*
X144545000Y-100735000D01*
X145045000Y-100735000D01*
X145045000Y-102185000D01*
G37*
G36*
X145695000Y-102185000D02*
G01*
X145195000Y-102185000D01*
X145195000Y-100735000D01*
X145695000Y-100735000D01*
X145695000Y-102185000D01*
G37*
G36*
X140331000Y-95152000D02*
G01*
X139431000Y-95152000D01*
X139431000Y-94802000D01*
X140331000Y-94802000D01*
X140331000Y-95152000D01*
G37*
G36*
X140331000Y-95652000D02*
G01*
X139431000Y-95652000D01*
X139431000Y-95302000D01*
X140331000Y-95302000D01*
X140331000Y-95652000D01*
G37*
G36*
X140331000Y-96152000D02*
G01*
X139431000Y-96152000D01*
X139431000Y-95802000D01*
X140331000Y-95802000D01*
X140331000Y-96152000D01*
G37*
G36*
X140331000Y-96652000D02*
G01*
X139431000Y-96652000D01*
X139431000Y-96302000D01*
X140331000Y-96302000D01*
X140331000Y-96652000D01*
G37*
G36*
X140331000Y-97152000D02*
G01*
X139431000Y-97152000D01*
X139431000Y-96802000D01*
X140331000Y-96802000D01*
X140331000Y-97152000D01*
G37*
G36*
X140331000Y-97652000D02*
G01*
X139431000Y-97652000D01*
X139431000Y-97302000D01*
X140331000Y-97302000D01*
X140331000Y-97652000D01*
G37*
G36*
X140331000Y-98152000D02*
G01*
X139431000Y-98152000D01*
X139431000Y-97802000D01*
X140331000Y-97802000D01*
X140331000Y-98152000D01*
G37*
G36*
X140331000Y-98652000D02*
G01*
X139431000Y-98652000D01*
X139431000Y-98302000D01*
X140331000Y-98302000D01*
X140331000Y-98652000D01*
G37*
G36*
X140806000Y-94677000D02*
G01*
X140456000Y-94677000D01*
X140456000Y-93777000D01*
X140806000Y-93777000D01*
X140806000Y-94677000D01*
G37*
G36*
X140806000Y-99677000D02*
G01*
X140456000Y-99677000D01*
X140456000Y-98777000D01*
X140806000Y-98777000D01*
X140806000Y-99677000D01*
G37*
G36*
X141306000Y-94677000D02*
G01*
X140956000Y-94677000D01*
X140956000Y-93777000D01*
X141306000Y-93777000D01*
X141306000Y-94677000D01*
G37*
G36*
X141306000Y-99677000D02*
G01*
X140956000Y-99677000D01*
X140956000Y-98777000D01*
X141306000Y-98777000D01*
X141306000Y-99677000D01*
G37*
G36*
X141806000Y-94677000D02*
G01*
X141456000Y-94677000D01*
X141456000Y-93777000D01*
X141806000Y-93777000D01*
X141806000Y-94677000D01*
G37*
G36*
X141806000Y-99677000D02*
G01*
X141456000Y-99677000D01*
X141456000Y-98777000D01*
X141806000Y-98777000D01*
X141806000Y-99677000D01*
G37*
G36*
X142306000Y-94677000D02*
G01*
X141956000Y-94677000D01*
X141956000Y-93777000D01*
X142306000Y-93777000D01*
X142306000Y-94677000D01*
G37*
G36*
X142306000Y-99677000D02*
G01*
X141956000Y-99677000D01*
X141956000Y-98777000D01*
X142306000Y-98777000D01*
X142306000Y-99677000D01*
G37*
G36*
X142806000Y-94677000D02*
G01*
X142456000Y-94677000D01*
X142456000Y-93777000D01*
X142806000Y-93777000D01*
X142806000Y-94677000D01*
G37*
G36*
X142806000Y-99677000D02*
G01*
X142456000Y-99677000D01*
X142456000Y-98777000D01*
X142806000Y-98777000D01*
X142806000Y-99677000D01*
G37*
G36*
X143306000Y-94677000D02*
G01*
X142956000Y-94677000D01*
X142956000Y-93777000D01*
X143306000Y-93777000D01*
X143306000Y-94677000D01*
G37*
G36*
X143306000Y-99677000D02*
G01*
X142956000Y-99677000D01*
X142956000Y-98777000D01*
X143306000Y-98777000D01*
X143306000Y-99677000D01*
G37*
G36*
X143806000Y-94677000D02*
G01*
X143456000Y-94677000D01*
X143456000Y-93777000D01*
X143806000Y-93777000D01*
X143806000Y-94677000D01*
G37*
G36*
X143806000Y-99677000D02*
G01*
X143456000Y-99677000D01*
X143456000Y-98777000D01*
X143806000Y-98777000D01*
X143806000Y-99677000D01*
G37*
G36*
X144306000Y-94677000D02*
G01*
X143956000Y-94677000D01*
X143956000Y-93777000D01*
X144306000Y-93777000D01*
X144306000Y-94677000D01*
G37*
G36*
X144306000Y-99677000D02*
G01*
X143956000Y-99677000D01*
X143956000Y-98777000D01*
X144306000Y-98777000D01*
X144306000Y-99677000D01*
G37*
G36*
X145331000Y-95152000D02*
G01*
X144431000Y-95152000D01*
X144431000Y-94802000D01*
X145331000Y-94802000D01*
X145331000Y-95152000D01*
G37*
G36*
X145331000Y-95652000D02*
G01*
X144431000Y-95652000D01*
X144431000Y-95302000D01*
X145331000Y-95302000D01*
X145331000Y-95652000D01*
G37*
G36*
X145331000Y-96152000D02*
G01*
X144431000Y-96152000D01*
X144431000Y-95802000D01*
X145331000Y-95802000D01*
X145331000Y-96152000D01*
G37*
G36*
X145331000Y-96652000D02*
G01*
X144431000Y-96652000D01*
X144431000Y-96302000D01*
X145331000Y-96302000D01*
X145331000Y-96652000D01*
G37*
G36*
X145331000Y-97152000D02*
G01*
X144431000Y-97152000D01*
X144431000Y-96802000D01*
X145331000Y-96802000D01*
X145331000Y-97152000D01*
G37*
G36*
X145331000Y-97652000D02*
G01*
X144431000Y-97652000D01*
X144431000Y-97302000D01*
X145331000Y-97302000D01*
X145331000Y-97652000D01*
G37*
G36*
X145331000Y-98152000D02*
G01*
X144431000Y-98152000D01*
X144431000Y-97802000D01*
X145331000Y-97802000D01*
X145331000Y-98152000D01*
G37*
G36*
X145331000Y-98652000D02*
G01*
X144431000Y-98652000D01*
X144431000Y-98302000D01*
X145331000Y-98302000D01*
X145331000Y-98652000D01*
G37*
D12*
X132200000Y-99650000D03*
X132200000Y-101550000D03*
X125857000Y-98850000D03*
X125857000Y-100750000D03*
D13*
X143395000Y-104235000D03*
X144895000Y-104235000D03*
D14*
X144145000Y-101460000D03*
X143495000Y-101460000D03*
X145445000Y-101460000D03*
X144795000Y-101460000D03*
D15*
X140845000Y-101335000D03*
X147445000Y-101335000D03*
D16*
X140545000Y-104135000D03*
X147745000Y-104135000D03*
D14*
X142845000Y-101460000D03*
D17*
X150513000Y-98000000D03*
X146413000Y-98000000D03*
X150513000Y-99600000D03*
X146413000Y-99600000D03*
D18*
X144131000Y-94227000D03*
X143631000Y-94227000D03*
X143131000Y-94227000D03*
X142631000Y-94227000D03*
X142131000Y-94227000D03*
X141631000Y-94227000D03*
X141131000Y-94227000D03*
X140631000Y-94227000D03*
D19*
X139881000Y-94977000D03*
X139881000Y-95477000D03*
X139881000Y-95977000D03*
X139881000Y-96477000D03*
X139881000Y-96977000D03*
X139881000Y-97477000D03*
X139881000Y-97977000D03*
X139881000Y-98477000D03*
D20*
X140631000Y-99227000D03*
X141131000Y-99227000D03*
X141631000Y-99227000D03*
X142131000Y-99227000D03*
X142631000Y-99227000D03*
X143131000Y-99227000D03*
X143631000Y-99227000D03*
X144131000Y-99227000D03*
D21*
X144881000Y-98477000D03*
X144881000Y-97977000D03*
X144881000Y-97477000D03*
X144881000Y-96977000D03*
X144881000Y-96477000D03*
X144881000Y-95977000D03*
X144881000Y-95477000D03*
X144881000Y-94977000D03*
D22*
X142381000Y-96727000D03*
D23*
X148375000Y-96647000D03*
X150075000Y-96647000D03*
D24*
X136525000Y-101473000D03*
X138025000Y-101473000D03*
D23*
X136437000Y-99695000D03*
X138137000Y-99695000D03*
D25*
X133731000Y-101942000D03*
X133731000Y-100242000D03*
D26*
X135425000Y-90617000D03*
X135425000Y-91567000D03*
X135425000Y-92517000D03*
X137625000Y-92517000D03*
X137625000Y-90617000D03*
D27*
X133450000Y-92150000D03*
X133450000Y-88850000D03*
D28*
X135450000Y-88875000D03*
X135450000Y-87125000D03*
X138450000Y-87125000D03*
X138450000Y-88875000D03*
D29*
X149987000Y-88910000D03*
X149987000Y-83810000D03*
D30*
X140081000Y-88304000D03*
X140081000Y-90004000D03*
D31*
X143471000Y-87757000D03*
X141771000Y-87757000D03*
X143400000Y-86106000D03*
X141700000Y-86106000D03*
D25*
X145542000Y-88480000D03*
X145542000Y-86780000D03*
D12*
X132200000Y-95450000D03*
X132200000Y-97350000D03*
D32*
X174012871Y-87683492D03*
X172742871Y-87683492D03*
X171472871Y-87683492D03*
X170202871Y-87683492D03*
X168932871Y-87683492D03*
X167662871Y-87683492D03*
X166392871Y-87683492D03*
X165122871Y-87683492D03*
X163852871Y-87683492D03*
X162582871Y-87683492D03*
X161312871Y-87683492D03*
X160042871Y-87683492D03*
X160042871Y-97083492D03*
X161312871Y-97083492D03*
X162582871Y-97083492D03*
X163852871Y-97083492D03*
X165122871Y-97083492D03*
X166392871Y-97083492D03*
X167662871Y-97083492D03*
X168932871Y-97083492D03*
X170202871Y-97083492D03*
X171472871Y-97083492D03*
X172742871Y-97083492D03*
X174012871Y-97083492D03*
D26*
X127650000Y-100300000D03*
X127650000Y-101250000D03*
X127650000Y-102200000D03*
X129850000Y-102200000D03*
X129850000Y-100300000D03*
X127500000Y-96650000D03*
X127500000Y-97600000D03*
X127500000Y-98550000D03*
X129700000Y-98550000D03*
X129700000Y-96650000D03*
D33*
X133700000Y-86950000D03*
X133700000Y-85050000D03*
X131700000Y-86000000D03*
D25*
X130810000Y-93052000D03*
X130810000Y-91352000D03*
D27*
X124800000Y-92790000D03*
X124800000Y-89490000D03*
D34*
X126650000Y-86540000D03*
X128550000Y-86540000D03*
X127600000Y-84540000D03*
D28*
X126500000Y-90015000D03*
X126500000Y-88265000D03*
X129500000Y-88265000D03*
X129500000Y-90015000D03*
D26*
X126700000Y-91790000D03*
X126700000Y-92740000D03*
X126700000Y-93690000D03*
X128900000Y-93690000D03*
X128900000Y-91790000D03*
D35*
X133719000Y-103251000D03*
X132219000Y-103251000D03*
D23*
X148629000Y-95250000D03*
X150329000Y-95250000D03*
D36*
X185293000Y-104013000D03*
D37*
X185293000Y-102743000D03*
X185293000Y-101473000D03*
X185293000Y-100203000D03*
X185293000Y-98933000D03*
X185293000Y-97663000D03*
X185293000Y-96393000D03*
X185293000Y-95123000D03*
X185293000Y-93853000D03*
X185293000Y-92583000D03*
X185293000Y-91313000D03*
X185293000Y-90043000D03*
X185293000Y-88773000D03*
X185293000Y-87503000D03*
X185293000Y-86233000D03*
X185293000Y-84963000D03*
X185293000Y-83693000D03*
X185293000Y-82423000D03*
X185293000Y-81153000D03*
X185293000Y-79883000D03*
D38*
X153670000Y-105156000D03*
D37*
X154940000Y-105156000D03*
X156210000Y-105156000D03*
X157480000Y-105156000D03*
X158750000Y-105156000D03*
X160020000Y-105156000D03*
X161290000Y-105156000D03*
X162560000Y-105156000D03*
X163830000Y-105156000D03*
X165100000Y-105156000D03*
X166370000Y-105156000D03*
X167640000Y-105156000D03*
X168910000Y-105156000D03*
X170180000Y-105156000D03*
X171450000Y-105156000D03*
X172720000Y-105156000D03*
X173990000Y-105156000D03*
X175260000Y-105156000D03*
X176530000Y-105156000D03*
X177800000Y-105156000D03*
D39*
X176332000Y-83071000D03*
X175532000Y-83071000D03*
X174732000Y-83071000D03*
X173932000Y-83071000D03*
X173132000Y-83071000D03*
X172332000Y-83071000D03*
X171532000Y-83071000D03*
X170732000Y-83071000D03*
X169932000Y-83071000D03*
X169132000Y-83071000D03*
X168332000Y-83071000D03*
X167532000Y-83071000D03*
X166732000Y-83071000D03*
X165932000Y-83071000D03*
X165132000Y-83071000D03*
X164332000Y-83071000D03*
X163532000Y-83071000D03*
X162732000Y-83071000D03*
X161932000Y-83071000D03*
X161132000Y-83071000D03*
X160332000Y-83071000D03*
X159532000Y-83071000D03*
X158732000Y-83071000D03*
X157932000Y-83071000D03*
D40*
X155382000Y-85821000D03*
X155382000Y-86621000D03*
X155382000Y-87421000D03*
X155382000Y-88221000D03*
X155382000Y-89021000D03*
X155382000Y-89821000D03*
X155382000Y-90621000D03*
X155382000Y-91421000D03*
X155382000Y-92221000D03*
X155382000Y-93021000D03*
X155382000Y-93821000D03*
X155382000Y-94621000D03*
X155382000Y-95421000D03*
X155382000Y-96221000D03*
X155382000Y-97021000D03*
X155382000Y-97821000D03*
D39*
X157932000Y-100571000D03*
X158732000Y-100571000D03*
X159532000Y-100571000D03*
X160332000Y-100571000D03*
X161132000Y-100571000D03*
X161932000Y-100571000D03*
X162732000Y-100571000D03*
X163532000Y-100571000D03*
X164332000Y-100571000D03*
X165132000Y-100571000D03*
X165932000Y-100571000D03*
X166732000Y-100571000D03*
X167532000Y-100571000D03*
X168332000Y-100571000D03*
X169132000Y-100571000D03*
X169932000Y-100571000D03*
X170732000Y-100571000D03*
X171532000Y-100571000D03*
X172332000Y-100571000D03*
X173132000Y-100571000D03*
X173932000Y-100571000D03*
X174732000Y-100571000D03*
X175532000Y-100571000D03*
X176332000Y-100571000D03*
D40*
X178882000Y-97821000D03*
X178882000Y-97021000D03*
X178882000Y-96221000D03*
X178882000Y-95421000D03*
X178882000Y-94621000D03*
X178882000Y-93821000D03*
X178882000Y-93021000D03*
X178882000Y-92221000D03*
X178882000Y-91421000D03*
X178882000Y-90621000D03*
X178882000Y-89821000D03*
X178882000Y-89021000D03*
X178882000Y-88221000D03*
X178882000Y-87421000D03*
X178882000Y-86621000D03*
X178882000Y-85821000D03*
D41*
X181500000Y-75184000D03*
D37*
X180230000Y-75184000D03*
X178960000Y-75184000D03*
X177690000Y-75184000D03*
X176420000Y-75184000D03*
X175150000Y-75184000D03*
X173880000Y-75184000D03*
X172610000Y-75184000D03*
X171340000Y-75184000D03*
X170070000Y-75184000D03*
X168800000Y-75184000D03*
X167530000Y-75184000D03*
X166260000Y-75184000D03*
X164990000Y-75184000D03*
X163720000Y-75184000D03*
X162450000Y-75184000D03*
X161180000Y-75184000D03*
X159910000Y-75184000D03*
X158640000Y-75184000D03*
X157370000Y-75184000D03*
X156100000Y-75184000D03*
X154830000Y-75184000D03*
X153560000Y-75184000D03*
X152290000Y-75184000D03*
D42*
X148971000Y-93472000D03*
X146558000Y-93472000D03*
X152273000Y-99822000D03*
X136144000Y-97155000D03*
G36*
X124529121Y-95016002D02*
G01*
X124575614Y-95069658D01*
X124587000Y-95122000D01*
X124587000Y-98172000D01*
X124566998Y-98240121D01*
X124513342Y-98286614D01*
X124461000Y-98298000D01*
X121157000Y-98298000D01*
X121088879Y-98277998D01*
X121042386Y-98224342D01*
X121031000Y-98172000D01*
X121031000Y-95122000D01*
X121051002Y-95053879D01*
X121104658Y-95007386D01*
X121157000Y-94996000D01*
X124461000Y-94996000D01*
X124529121Y-95016002D01*
G37*
G36*
X124529121Y-103017002D02*
G01*
X124575614Y-103070658D01*
X124587000Y-103123000D01*
X124587000Y-105919000D01*
X124566998Y-105987121D01*
X124513342Y-106033614D01*
X124461000Y-106045000D01*
X121030000Y-106045000D01*
X120961879Y-106024998D01*
X120915386Y-105971342D01*
X120904000Y-105919000D01*
X120904000Y-103123000D01*
X120924002Y-103054879D01*
X120977658Y-103008386D01*
X121030000Y-102997000D01*
X124461000Y-102997000D01*
X124529121Y-103017002D01*
G37*
M02*
